<svg xmlns="http://www.w3.org/2000/svg" xmlns:xlink="http://www.w3.org/1999/xlink" width="51" height="153" viewBox="0 0 51 153">
    <defs>
        <path id="a" d="M0 .874h40.346v33.657H0z"/>
        <path id="c" d="M.339.707h10.479v10.737H.339z"/>
        <path id="e" d="M.102.537h21.313v20.54H.102z"/>
    </defs>
    <g fill="none" fill-rule="evenodd">
        <path fill="#E6A17B" d="M27.718 113.788l-8.043 15.06-3.604-1.773L21.15 111z"/>
        <path fill="#966100" d="M30.112 110.93l-9.003-3.552-.218 4.116s2.848 1.757 6.667 2.749l2.554-3.313z"/>
        <path fill="#21212E" d="M21.034 131.171c1.58-2.739 3.8-6.292 3.8-6.292-.907-.375-2.206-1-2.206-1l-1.264 1.822-4.93-2.123c-.516 1.374-.94 3.265-2.032 5.34 0 0-1.982 1.137-2.74 1.53-.758.391 1.41 9.31 2.864 13.232 1.454 3.923 2.505 6.665 3.272 6.568 1.429-.18.329-4.563 1.048-9.604.69-4.848 2.188-9.473 2.188-9.473"/>
        <path fill="#9F7215" d="M27.968 110.643l-7.386-2.835s1.509-9.575 2.07-12.495c.61-3.173 1.22-7.813 2.075-13.795 0 0 6.136 13.94 5.548 22.106-.19 2.621-2.307 7.02-2.307 7.02"/>
        <g transform="translate(0 30.293)">
            <mask id="b" fill="#fff">
                <use xlink:href="#a"/>
            </mask>
            <path fill="#E6A17B" d="M40.097 1.48c.892 1.19-.579 4.146-5.083 7.644-2.76 2.146-9.324 5.839-12.084 7.735 0 0-11.002 10.718-12.486 12.203 0 0-.685 2.026-1.715 4.31-.703 1.556-1.219 1.024-1.15.302.067-.721.566-3.07.566-3.07s-4.046 4.357-5.29 3.892c-.794-.297 1.938-2.354 2.81-3.28 0 0-5.052 1.724-5.588 1.15-.534-.572 1.758-1.311 4.604-2.387 0 0-3.193.043-3.777-.956-.48-.824 7.224-.656 7.878-1.351 0 0 5.871-10.232 11.371-15.145C27.353 6.096 38-1.313 40.097 1.48" mask="url(#b)"/>
        </g>
        <g transform="translate(14 -.707)">
            <mask id="d" fill="#fff">
                <use xlink:href="#c"/>
            </mask>
            <path fill="#202693" d="M10.818 4.882s-1.893-3.164-2.742-3.84C6.967.162 2.958.956 1.292 4.14c-1.858 3.55-.595 6.398.377 6.814 1.586.679 4.99.456 4.99.456l4.159-6.527z" mask="url(#d)"/>
        </g>
        <path fill="#161B6C" d="M24.817 4.175l-4.157 6.527s-3.405.223-4.99-.456c-.973-.416-2.236-3.264-.377-6.814 0 0-.256 1.667.279 2.639.535.97 2.867-.751 4.669-1.121 1.172-.24 4.576-.775 4.576-.775"/>
        <path fill="#F5C9B3" d="M42.037 24.062s-1.48 3.506-.365 7.367c1.115 3.862 2.126 7.548 2.017 9.16-.07 1.068-3.658 8.022-5.882 13.79-.819 2.124-.778 3.496-.778 3.496l-8.65-.22s.527-7.208 1.1-10.41c1.612-9.016 3.957-14.623 5.131-17.3 1.664-3.796 3.518-7.916 3.518-7.916l3.91 2.033z"/>
        <path fill="#F1F2F2" d="M27.94 51.424c.109-4.717 1.38-12.394 2.199-14.441 1.32-3.3 4.618-7.477 4.618-7.477.573.145 4.19 4.829 5.746 4.873 1.554.044 2.104-1.074 2.104-1.074 2.145 5.124 3.912 8.333 3.404 10.126-.596 2.109-2.527 2.507-3.736 4.408-1.21 1.9-1.504 4.012-1.893 7.155-1.84-.06-4.84-.69-8.704-2.016-1.911-.656-3.738-1.554-3.738-1.554"/>
        <path fill="#E6A17B" d="M36.425 26.067c.163-2.237.23-3.938.23-3.938l5.382 1.933s-.579 1.37-.74 3.34c0 0-1.15.018-2.838-.563a27.74 27.74 0 0 1-2.034-.772"/>
        <g transform="translate(29 4.293)">
            <mask id="f" fill="#fff">
                <use xlink:href="#e"/>
            </mask>
            <path fill="#F5C9B3" d="M12.685.537s5.589 2.708 6.067 6.55c.207 1.66.58 4.487.58 4.487s1.224.792 2.046 1.046c0 0 .41 1.14-1.472 1.965 0 0 .288 4.271-.09 5.05-.378.777-5.577 1.821-8.191 1.304-1.53-.302-4.915-2.44-4.915-2.44S.557 20.031.125 12.821C-.346 4.941 6.763.902 12.685.537" mask="url(#f)"/>
        </g>
        <path fill="#E6A17B" d="M37.489 11.311c2.695 1.643 3.016 1.041 3.016 1.041s-.512-.973-.215-1.573c.297-.598 4.693-2.802 5.209-3.264-1.752-1.657-3.814-2.685-3.814-2.685-2.576.16-5.376 1.015-7.68 2.578.77 1.642 2.284 3.172 3.484 3.903"/>
        <path fill="#F4D600" d="M19.966 11.914s1.004-1.91 3.45-5.233a326.809 326.809 0 0 0 2.558-3.52s-.44-.2-1.301-.234c-.67-.026-2.176 1.676-2.443 1.967-2.615 2.84-2.892 5.682-2.878 5.936.024.454.614 1.084.614 1.084"/>
        <path fill="#FFF" d="M46.203 16.462s-.387-3.504-1.106-4.738c0 0-.969.735-1.272 2.454-.29 1.645-.096 2.406-.096 2.406s1.476.162 2.474-.122"/>
        <path fill="#000" d="M41.326 27.128c-.916-.044-3.07-.491-4.697-1.508-.163.61-.329 1.279-.588 1.958.994.604 3.01 1.443 5.24 1.533-.043-.71-.018-1.377.045-1.983"/>
        <path fill="#161B24" d="M45.097 11.724c-.528.71-.807 1.512-.92 2.326-.052.408-.105.84-.126 1.253-.034.407-.046.851-.032 1.206v.002l-.256-.224c.784.159 1.617.276 2.437.162.007-.003.015.003.017.01 0 .008-.003.015-.01.017-.791.303-1.647.381-2.51.405a.247.247 0 0 1-.241-.172l-.015-.05-.002-.006c-.15-.502-.136-.94-.118-1.401a7.95 7.95 0 0 1 .232-1.337c.136-.44.302-.879.572-1.255.256-.378.577-.72.972-.936"/>
        <path fill="#161B24" d="M45.097 11.724c.5.86.84 2.534 1.074 4.439 0 0-.36.01-.832-.783-.444-.743-.591-3.33-.591-3.33l.349-.326z"/>
        <path fill="#E6A17B" d="M48.967 20.135s.025.508.03.814c0 0-3.483.45-3.913.063-.322-.288-.922-1.206-.922-1.206s.486.262 1.12.587c.373.191 3.685-.258 3.685-.258M33.111 17.86c-.055-.003-.065-.075-.015-.098.411-.19 1.321-.529 1.885-.489.55.038.903 1.056.934 1.374.028.292-.814.155-.665.56.102.278.64.433.83.48a.04.04 0 0 1 .02.067c-.198.2-.96.894-1.56.294-.349-.349-.099-1.095.091-1.797.06-.217-.8-.35-1.52-.39"/>
        <path fill="#202693" d="M46.22 10.113s-.193.865-.374 1c-.103.076-1.632.014-2.16.245-.482.211-1.343.558-1.343.558s.45-.653 1.16-1.214c.593-.469 2.717-.589 2.717-.589M38.93 19.687l-1.209-.917s-.806-2.4-1.55-2.844c-1.397-.836-3.868.364-4.496 1.052-.628.687.893 4.294 2.685 4.88 1.55.509 2.534-.33 2.534-.33s1.812 5.793-.238 9.49c-2.05 3.699-4.08 4.685-4.08 4.685s-9.814 2.156-15.55-6.365c0 0 5.212-4.121 6.774-5.9 1.562-1.776-4.829-7.16-4.63-9.232.197-2.073 2.917-11.228 10.395-12.852 7.48-1.624 8.97.67 11.12 1.248 1.877.505 3.06.347 3.513.38.097.008.16.093.141.189-.098.493-.406 1.913-.847 2.752-.724 1.376-4.998 2.98-4.782 4.013.123.584 1.977 2.265 1.946 3.018-.055 1.296-.973 2.554-1.54 4.173-.647 1.842-.187 2.56-.187 2.56"/>
        <path fill="#F5C9B3" d="M35.865 114.53l-2.902 16.826-3.98-.551-.228-16.857z"/>
        <path fill="#9F7215" d="M37.24 111.064l-9.664-.542 1.087 3.976s3.256.772 7.193.514l1.383-3.948z"/>
        <path fill="#21212E" d="M34.983 133.133c.64-3.097 1.63-7.168 1.63-7.168a52.477 52.477 0 0 1-2.409-.256l-.626 2.128-5.348-.466c-.058 1.467.135 3.394-.251 5.708 0 0-1.524 1.702-2.121 2.313-.595.611 4.265 8.395 6.878 11.662 2.614 3.266 4.473 5.54 5.171 5.206 1.3-.619-1.122-4.435-2.024-9.446-.867-4.819-.9-9.68-.9-9.68"/>
        <path fill="#161B6C" d="M31.675 16.977c-.628.687.893 4.294 2.685 4.882 1.55.507 2.534-.33 2.534-.33s1.812 5.792-.238 9.49c-2.05 3.697-4.082 4.683-4.082 4.683s-9.812 2.156-15.548-6.365c0 0 4.778.178 7.193-.094 2.798-.315 5.215-4.566 6.012-5.142.976-.705 1.71-1.298 1.71-1.298s-1.822-2.644-1.456-4.108c.15-.604 1.19-1.718 1.19-1.718M36.171 15.926c.744.445 1.55 2.844 1.55 2.844l1.208.917s-.46-.718.186-2.56c.568-1.618 1.487-2.876 1.541-4.173.032-.753-1.823-2.434-1.945-3.018-.217-1.032 4.057-2.636 4.781-4.012.442-.84.749-2.26.847-2.753a.152.152 0 0 0-.141-.187c-.453-.035-1.636.123-3.512-.382 0 0 .942 1.115.471 1.493-.472.378-5.565 1.389-6.741 1.968-1.177.579 1.357 5.395 1.617 6.475.141.588.138 3.388.138 3.388"/>
        <path fill="#BCBEC0" d="M36.537 33.382s.394 8.195-8.388 14.738c0 0 .402-4.428.78-5.87l7.608-8.868z"/>
        <path fill="#E8C012" d="M27.542 111.072s.296-1.99-2.107-24.82c-.297-2.826-3.12-17.809-1.224-20.86 0 0 1.515-2.318 3.359-5.664l10.465.343s5.197 22.568 4.11 31.518c-.914 7.521-4.817 19.964-4.817 19.964s-5.11.53-9.786-.48"/>
        <path fill="#BE9200" d="M36.526 94.708c-5.2-12.123-11.043-23.57-9.32-25.084l4.07-3.744c3.082-2.834 6.759-5.809 6.759-5.809l.972-2.532-12.118-.527.68 2.716c-2.477 3.586-5.25 8.476-5.25 8.476-1.502 2.081-1.531 8.118-.9 10.888 3.858 16.9 6.122 31.98 6.122 31.98 4.677 1.011 9.787.481 9.787.481s.628-13.509-.803-16.845"/>
        <path fill="#F5C9B3" d="M36.467 32.103c1.13 1.006.257 4.25-3.529 8.646-2.323 2.695-8.123 7.7-10.495 10.146 0 0-8.813 12.904-9.995 14.684 0 0-.274 2.16-.842 4.643-.387 1.694-1.009 1.268-1.087.534-.077-.734-.052-3.175-.052-3.175s-3.158 5.16-4.492 4.945c-.852-.136 1.46-2.737 2.141-3.837 0 0-4.69 2.737-5.339 2.273-.649-.463 1.488-1.662 4.11-3.309 0 0-3.176.687-3.96-.193-.645-.724 7.073-2.108 7.584-2.932 0 0 3.795-11.386 8.29-17.393 5.887-7.864 15.011-17.396 17.666-15.032"/>
    </g>
</svg>
