<svg xmlns="http://www.w3.org/2000/svg" xmlns:xlink="http://www.w3.org/1999/xlink" width="50" height="140" viewBox="0 0 50 140">
    <defs>
        <path id="a" d="M.907.418h12.808V28H.907z"/>
        <path id="c" d="M0 .292h26.898v41.08H0z"/>
    </defs>
    <g fill="none" fill-rule="evenodd">
        <path fill="#E6A17B" d="M29.34 100.336L15.085 113.62l-2.905-2.773 12.062-15.612z"/>
        <path fill="#966100" d="M32.78 98.363l-6.946-6.74-1.783 3.716s1.954 2.717 5.098 5.1l3.631-2.076z"/>
        <path fill="#9F7215" d="M40.718 81.717c-1.036-2.485-23.148-12.968-25.404-14.278-2.027-1.177-2.211 4.937-1.352 6.507 2.45 4.478 14.132 9.648 14.132 9.648-.939 2.23-1.974 4.86-2.701 7.634 3.523 4.697 6.811 6.81 6.811 6.81s11.014-10.321 8.514-16.321"/>
        <path fill="#E6A17B" d="M15.264 67.465s-4.925-13.347-3.81-17.295c2.471-8.75 11.71-17.59 14.941-16.174 1.375.603.843 5.074-2.895 9.07-2.986 3.191-5.306 5.61-6.796 8.648 0 0 .721 7.824 1.854 14.62l-3.294 1.131z"/>
        <path fill="#202693" d="M15.178 4.176s-1.892-3.164-2.741-3.84C11.328-.544 7.319.25 5.653 3.434c-1.858 3.549-.594 6.398.377 6.813 1.585.68 4.99.457 4.99.457l4.158-6.527z"/>
        <path fill="#161B6C" d="M15.178 4.176l-4.158 6.527s-3.405.223-4.99-.457c-.971-.415-2.235-3.264-.377-6.813 0 0-.256 1.666.279 2.638s2.868-.75 4.669-1.12c1.173-.241 4.577-.775 4.577-.775"/>
        <path fill="#F5C9B3" d="M32.398 24.063s-1.48 3.506-.365 7.367c1.115 3.862 2.126 7.547 2.017 9.16-.071 1.067-3.658 8.022-5.882 13.79-.82 2.124-.778 3.496-.778 3.496l-8.65-.22s.527-7.21 1.099-10.41c1.613-9.016 3.958-14.623 5.132-17.3 1.665-3.797 3.519-7.916 3.519-7.916l3.908 2.033z"/>
        <path fill="#F1F2F2" d="M18.3 51.425c.11-4.717 1.38-12.394 2.2-14.441 1.32-3.3 4.617-7.477 4.617-7.477.573.144 4.191 4.829 5.746 4.873 1.554.044 2.104-1.075 2.104-1.075 2.145 5.125 3.912 8.333 3.404 10.126-.596 2.11-2.527 2.507-3.736 4.409-1.209 1.9-1.503 4.012-1.893 7.155-1.839-.06-4.839-.691-8.704-2.017-1.91-.656-3.738-1.553-3.738-1.553"/>
        <path fill="#E6A17B" d="M26.786 26.068c.163-2.237.23-3.938.23-3.938l5.381 1.933s-.578 1.37-.739 3.339c0 0-1.15.019-2.839-.561-1.3-.448-2.033-.773-2.033-.773"/>
        <path fill="#F5C9B3" d="M32.046 4.832s5.589 2.708 6.067 6.548c.207 1.661.579 4.487.579 4.487s1.225.793 2.046 1.047c0 0 .41 1.14-1.471 1.965 0 0 .288 4.271-.09 5.05-.378.777-5.577 1.822-8.191 1.305-1.53-.303-4.915-2.44-4.915-2.44s-6.153 1.531-6.585-5.679c-.472-7.88 6.637-11.919 12.56-12.284"/>
        <path fill="#E6A17B" d="M27.85 11.312c2.695 1.643 3.015 1.041 3.015 1.041s-.512-.974-.215-1.573c.298-.598 4.693-2.802 5.21-3.264-1.753-1.657-3.815-2.685-3.815-2.685-2.576.16-5.376 1.014-7.68 2.578.77 1.641 2.284 3.172 3.484 3.903"/>
        <path fill="#F4D600" d="M10.327 11.915s1.003-1.91 3.45-5.233c1.456-1.976 2.558-3.52 2.558-3.52s-.44-.202-1.301-.235c-.67-.026-2.176 1.677-2.443 1.967-2.615 2.84-2.892 5.683-2.88 5.938.025.453.616 1.083.616 1.083"/>
        <path fill="#FFF" d="M36.564 16.463s-.387-3.505-1.106-4.738c0 0-.97.734-1.272 2.454-.29 1.645-.095 2.406-.095 2.406s1.475.162 2.473-.122"/>
        <path fill="#000" d="M31.687 27.129c-.915-.044-3.07-.492-4.697-1.508-.163.61-.33 1.279-.588 1.958.994.604 3.01 1.443 5.24 1.533-.042-.71-.018-1.377.045-1.983"/>
        <path fill="#161B24" d="M35.457 11.726c-.528.71-.806 1.511-.918 2.325a15.82 15.82 0 0 0-.128 1.253 10.18 10.18 0 0 0-.03 1.206l-.002.002-.256-.223c.784.157 1.617.276 2.437.16.007-.002.015.003.017.011a.016.016 0 0 1-.01.018c-.79.302-1.647.38-2.509.404a.247.247 0 0 1-.242-.172l-.015-.05v-.005c-.15-.503-.138-.942-.119-1.402.045-.455.108-.89.231-1.336.136-.441.302-.88.572-1.255.256-.378.577-.721.972-.936"/>
        <path fill="#161B24" d="M35.457 11.726c.501.858.84 2.533 1.074 4.437 0 0-.358.01-.83-.781-.445-.743-.592-3.33-.592-3.33l.348-.326z"/>
        <path fill="#E6A17B" d="M39.327 20.136s.026.508.031.814c0 0-3.484.45-3.914.064-.322-.29-.922-1.207-.922-1.207s.486.262 1.12.587c.374.192 3.685-.258 3.685-.258M23.472 17.86c-.055-.002-.065-.074-.015-.097.411-.19 1.321-.53 1.885-.49.55.039.903 1.058.934 1.375.028.292-.813.155-.665.56.103.278.639.433.831.48a.04.04 0 0 1 .019.067c-.197.2-.96.894-1.559.294-.35-.35-.1-1.094.09-1.797.059-.217-.801-.35-1.52-.391"/>
        <path fill="#202693" d="M36.58 10.114s-.192.865-.373 1c-.102.076-1.632.014-2.16.245-.482.211-1.343.558-1.343.558s.449-.654 1.159-1.214c.594-.469 2.718-.589 2.718-.589M29.29 19.688l-1.208-.918s-.806-2.4-1.55-2.844c-1.397-.835-3.867.365-4.495 1.053-.63.687.892 4.293 2.684 4.88 1.549.509 2.535-.33 2.535-.33s1.81 5.793-.24 9.49c-2.05 3.698-4.08 4.685-4.08 4.685s-9.813 2.155-15.55-6.365c0 0 5.213-4.121 6.775-5.9 1.562-1.777-4.83-7.16-4.631-9.232.198-2.073 2.918-11.228 10.396-12.852 7.479-1.624 8.969.669 11.12 1.248 1.877.504 3.06.347 3.513.38.097.008.16.093.142.188-.1.494-.407 1.914-.848 2.753-.724 1.376-4.998 2.98-4.782 4.013.123.584 1.977 2.264 1.946 3.018-.054 1.296-.973 2.554-1.541 4.173-.646 1.842-.186 2.56-.186 2.56"/>
        <path fill="#F5C9B3" d="M35.375 102.548l-9.307 14.966-3.579-1.823 6.54-16.567z"/>
        <path fill="#9F7215" d="M38.259 99.517l-8.587-4.464-.643 4.071s2.652 2.042 6.347 3.424l2.883-3.031z"/>
        <g transform="translate(18 111.283)">
            <mask id="b" fill="#fff">
                <use xlink:href="#a"/>
            </mask>
            <path fill="#21212E" d="M9.826 8.075c1.62-2.716 3.89-6.238 3.89-6.238A51.479 51.479 0 0 1 11.522.805l-1.29 1.806-4.9-2.193c-.629 1.253-1.392 3.67-2.155 5.831 0 0-1.399 1.145-2.162 1.526-.763.382 2.671 9.666 4.07 13.61 1.4 3.942 2.41 6.698 3.18 6.613 1.43-.16.393-4.32.381-9.412-.01-4.072 1.18-10.51 1.18-10.51" mask="url(#b)"/>
        </g>
        <path fill="#21212E" d="M12.997 118.607c2.39-2.07 5.65-4.703 5.65-4.703-.735-.65-1.757-1.667-1.757-1.667l-1.79 1.31-3.966-3.62c-.99.992-2.473 3.047-3.876 4.86 0 0-1.688.648-2.532.771-.844.122-.498 10.015-.407 14.198.091 4.183.187 7.118.944 7.277 1.408.298 1.73-3.978 3.316-8.816 1.27-3.869 4.418-9.61 4.418-9.61"/>
        <path fill="#E8C012" d="M13.84 72.718c-1.66-2.425 1.305-10.925 3.57-14.28l10.465.343S49.772 71.482 49.13 80.474c-.369 5.16-9.646 19.951-9.646 19.951s-6.818-1.659-10.688-5.713c0 0 2.211-7.923 3.317-11.424 0 0-14.862-5.59-18.273-10.57"/>
        <path fill="#161B6C" d="M22.036 16.978c-.628.687.892 4.294 2.684 4.881 1.55.508 2.535-.329 2.535-.329s1.812 5.792-.239 9.49c-2.05 3.697-4.08 4.683-4.08 4.683s-9.813 2.156-15.55-6.365c0 0 4.78.178 7.194-.094 2.798-.315 5.215-4.566 6.012-5.142.975-.705 1.71-1.298 1.71-1.298s-1.822-2.644-1.456-4.108c.15-.605 1.19-1.718 1.19-1.718M26.532 15.926c.744.445 1.55 2.844 1.55 2.844l1.207.918s-.46-.719.186-2.56c.569-1.619 1.487-2.877 1.541-4.174.033-.753-1.822-2.434-1.944-3.017-.217-1.033 4.057-2.637 4.78-4.013.443-.839.75-2.259.849-2.753a.153.153 0 0 0-.142-.187c-.453-.034-1.636.123-3.512-.38 0 0 .941 1.113.47 1.491-.471.38-5.564 1.39-6.74 1.968-1.178.58 1.357 5.395 1.616 6.475.142.588.139 3.388.139 3.388"/>
        <path fill="#BE9200" d="M42.954 81.717C41.918 79.232 21.186 70.97 19.62 68.884c-.5-.667 8.254-10.103 8.254-10.103l.339-2.033-11.216-.501.412 2.192c-2.265 3.354-5.231 11.855-3.57 14.279 3.41 4.98 18.273 10.57 18.273 10.57-1.105 3.5-3.317 11.425-3.317 11.425 3.87 4.053 10.688 5.712 10.688 5.712s5.97-12.708 3.47-18.708"/>
        <path fill="#BCBEC0" d="M26.898 33.382s.394 8.195-8.388 14.74c0 0 .402-4.43.779-5.872l7.609-8.868z"/>
        <g transform="translate(0 31.283)">
            <mask id="d" fill="#fff">
                <use xlink:href="#c"/>
            </mask>
            <path fill="#F5C9B3" d="M2.53 32.04S4.918 18.386 9.162 13.4C15.528 5.917 23.982-1.73 26.505.776c1.072 1.066.023 4.257-4 8.438-2.466 2.565-7.412 5.826-9.913 8.14 0 0-5.972 12.938-7.581 16.835 0 0 1.436 3.05 1.269 3.883-.166.833-1.598 1.546-1.598 1.546s-.1 1.255-.406 1.523c-.271.237-.948.338-1.218.068-.373-.372-.813-1.117-.813-1.117S.727 39.086.282 38.536c-.71-.88.075-3.109.677-4.163a23.055 23.055 0 0 1 1.57-2.334" mask="url(#d)"/>
        </g>
    </g>
</svg>
