<svg xmlns="http://www.w3.org/2000/svg" xmlns:xlink="http://www.w3.org/1999/xlink" width="62" height="142" viewBox="0 0 62 142">
    <defs>
        <path id="a" d="M.822.52h37.066v18.118H.822z"/>
        <path id="c" d="M0 .898h18.243v25.344H0z"/>
    </defs>
    <g fill="none" fill-rule="evenodd">
        <g transform="translate(24 33.377)">
            <mask id="b" fill="#fff">
                <use xlink:href="#a"/>
            </mask>
            <path fill="#F5C9B3" d="M16.77 18.638c6.774-1.603 16.04-10.433 16.04-10.433s1.239-.23 2.53-.504c1.186-.25 2.577-1.22 2.548-2.352-.02-.706-.714-2.76-.714-2.76s.103-.86.034-1.382c-.05-.379-.65-.71-1.01-.686-.406.027-1.247.962-1.247.962s-1.57-.303-2.21.257c-.638.561-1.351 3.855-1.351 3.855-3.646 2.117-13.88 6.987-13.88 6.987S7.22 4.765 6.193 3.77c-2.512-2.435-7.925.743-3.968 5.105 6.305 6.952 14.545 9.764 14.545 9.764" mask="url(#b)"/>
        </g>
        <path fill="#E6A17B" d="M27.241 100.846l-12.423 6.863-2.264-3.317 10.764-9.597z"/>
        <path fill="#966100" d="M30.593 99.728l-5.864-7.699-1.411 2.766s.897 3.554 3.923 6.051l3.352-1.118z"/>
        <path fill="#9F7215" d="M42.84 85.229c-.634-2.617-22.4-17.451-24.77-18.542-1.144-.526-2.097 6.96-1.284 8.554 1.746 3.422 11.513 9.325 11.513 9.325-1.26 2.066-2.778 4.397-3.91 7.03 1.947 5.575 6.367 8.65 6.367 8.65S44.934 93.89 42.84 85.229"/>
        <path fill="#202693" d="M19.935 5.181s-1.062-3.53-1.72-4.393c-.86-1.126-4.94-1.336-7.335 1.344-2.669 2.987-2.14 6.058-1.3 6.7 1.371 1.044 4.727 1.662 4.727 1.662l5.628-5.313z"/>
        <path fill="#161B6C" d="M19.935 5.181l-5.628 5.313s-3.356-.618-4.727-1.663c-.84-.64-1.369-3.712 1.3-6.699 0 0-.655 1.553-.374 2.626s2.965-.027 4.801.055c1.196.054 4.628.368 4.628.368"/>
        <path fill="#F5C9B3" d="M32.43 27.776s-1.48 3.505-.364 7.367c1.114 3.861 2.125 7.547 2.017 9.161-.072 1.066-3.659 8.021-5.882 13.79-.82 2.122-.779 3.495-.779 3.495l-8.65-.22s.527-7.209 1.1-10.41c1.613-9.016 3.957-14.623 5.131-17.3 1.666-3.797 3.52-7.917 3.52-7.917l3.908 2.034z"/>
        <path fill="#F1F2F2" d="M18.333 55.138c.109-4.717 1.38-12.394 2.199-14.441 1.32-3.3 4.618-7.477 4.618-7.477.573.144 4.192 4.828 5.746 4.872C32.45 38.136 33 37.018 33 37.018c2.145 5.124 3.912 8.333 3.404 10.126-.596 2.11-2.527 2.507-3.736 4.409-1.21 1.9-1.503 4.012-1.893 7.154-1.84-.06-4.84-.69-8.704-2.016-1.911-.656-3.738-1.553-3.738-1.553"/>
        <path fill="#E6A17B" d="M26.82 29.781c.162-2.237.228-3.938.228-3.938l5.382 1.933s-.578 1.369-.739 3.339c0 0-1.15.019-2.839-.562-1.3-.447-2.033-.772-2.033-.772"/>
        <path fill="#F5C9B3" d="M36.13 9.941s4.757 3.993 4.282 7.833c-.205 1.662-.535 4.494-.535 4.494s.993 1.067 1.728 1.515c0 0 .118 1.204-1.908 1.545 0 0-.765 4.212-1.32 4.874-.558.661-5.854.403-8.263-.737-1.408-.668-4.169-3.567-4.169-3.567s-6.34-.019-4.997-7.116c1.47-7.757 9.35-9.935 15.182-8.84"/>
        <path fill="#E6A17B" d="M30.477 15.2c2.212 2.251 2.67 1.746 2.67 1.746s-.258-1.069.176-1.578c.435-.507 5.236-1.57 5.849-1.89C37.878 11.44 36.13 9.94 36.13 9.94c-2.537-.476-5.461-.33-8.077.621.346 1.781 1.439 3.635 2.424 4.637"/>
        <path fill="#F4D600" d="M13.339 11.5s1.44-1.607 4.626-4.23a329.807 329.807 0 0 0 3.339-2.789s-.376-.302-1.204-.545c-.643-.189-2.52 1.094-2.85 1.31-3.23 2.114-4.193 4.803-4.242 5.052-.087.446.33 1.202.33 1.202"/>
        <path fill="#FFF" d="M37.668 22.324s.48-3.493.085-4.864c0 0-1.118.475-1.833 2.068-.683 1.524-.68 2.31-.68 2.31s1.39.517 2.428.486"/>
        <path fill="#000" d="M31.72 30.841c-.915-.044-3.07-.49-4.697-1.508-.163.61-.33 1.28-.588 1.959.994.603 3.01 1.442 5.24 1.532a12.116 12.116 0 0 1 .044-1.982"/>
        <path fill="#161B24" d="M37.753 17.46c-.686.56-1.152 1.27-1.459 2.03-.152.383-.309.788-.43 1.185-.133.386-.253.813-.326 1.161v.001l-.195-.279c.722.345 1.501.663 2.324.752.008 0 .014.007.014.015s-.007.013-.013.014c-.842.1-1.69-.033-2.533-.22a.246.246 0 0 1-.192-.227l-.002-.053v-.005c-.023-.524.097-.945.228-1.388.155-.43.322-.837.551-1.239.24-.394.508-.779.861-1.077.341-.305.736-.558 1.172-.67"/>
        <path fill="#161B24" d="M37.753 17.46c.276.956.195 2.662-.043 4.565 0 0-.35-.078-.615-.96-.25-.83.24-3.375.24-3.375l.418-.23z"/>
        <path fill="#E6A17B" d="M39.45 26.561s-.1.5-.17.797c0 0-3.488-.416-3.81-.895-.242-.359-.6-1.396-.6-1.396s.409.373.944.844c.315.276 3.636.65 3.636.65M24.632 20.48c-.052-.018-.045-.09.009-.1.446-.084 1.41-.19 1.948-.013.524.172.617 1.245.569 1.56-.044.29-.826-.048-.781.38.03.296.513.577.688.67a.04.04 0 0 1 .002.07c-.241.145-1.15.631-1.584-.097-.254-.424.17-1.086.527-1.72.11-.197-.691-.536-1.378-.75"/>
        <path fill="#202693" d="M39.237 16.172s-.398.792-.607.878c-.118.05-1.587-.385-2.155-.29-.518.087-1.44.213-1.44.213s.597-.524 1.422-.894c.69-.31 2.78.093 2.78.093M29.826 23.673l-.947-1.186s-.195-2.522-.808-3.136c-1.15-1.15-3.839-.592-4.616-.079-.777.513-.185 4.382 1.41 5.39 1.378.871 2.538.3 2.538.3s.34 6.06-2.552 9.143c-2.891 3.084-5.102 3.544-5.102 3.544S9.707 37.34 6.228 27.676c0 0 6.062-2.722 8.011-4.064 1.949-1.342-2.932-8.124-2.233-10.085.699-1.96 5.574-10.174 13.223-9.92 7.648.254 8.533 2.842 10.477 3.93 1.696.947 2.882 1.084 3.313 1.227a.154.154 0 0 1 .091.217c-.216.454-.861 1.756-1.494 2.462-1.039 1.157-5.575 1.667-5.618 2.721-.024.596 1.364 2.68 1.149 3.402-.37 1.244-1.568 2.24-2.514 3.67-1.078 1.628-.807 2.437-.807 2.437"/>
        <path fill="#F5C9B3" d="M42.665 103.64l-6.752 16.28-3.827-1.218 3.76-17.41z"/>
        <path fill="#9F7215" d="M45.018 100.18l-9.2-3.01.029 4.122s2.948 1.584 6.818 2.347l2.353-3.459z"/>
        <path fill="#21212E" d="M37.948 121.454c1.156-2.943 2.824-6.788 2.824-6.788-.954-.234-2.331-.661-2.331-.661l-.979 1.99-5.191-1.366c-.417 1.338-.778 3.846-1.179 6.103 0 0-1.195 1.357-1.886 1.858-.691.5 4.206 9.103 6.227 12.766 2.021 3.663 3.468 6.219 4.212 6.009 1.386-.39-.313-4.326-1.153-9.348-.67-4.017-.544-10.563-.544-10.563"/>
        <g transform="translate(0 102.377)">
            <mask id="d" fill="#fff">
                <use xlink:href="#c"/>
            </mask>
            <path fill="#21212E" d="M11.737 9.775c2.77-1.528 6.506-3.422 6.506-3.422-.584-.79-1.372-1.997-1.372-1.997l-2.025.907L11.723.898c-1.175.763-3.054 2.464-4.804 3.945 0 0-1.785.283-2.637.227-.85-.056-2.572 9.692-3.355 13.802-.782 4.11-1.3 7-.593 7.314 1.316.585 2.52-3.53 5.08-7.932 2.047-3.52 6.323-8.479 6.323-8.479" mask="url(#d)"/>
        </g>
        <path fill="#E8C012" d="M16.504 75.12c-2.033-2.124.093-9.94 1.783-13.619l9.865.172s23.681 9.658 24.386 16.288c.625 5.875-6.91 22.836-6.91 22.836s-6.038-.256-10.515-3.627c0 0 .428-8.148 1.141-12.497 0 0-15.575-5.195-19.75-9.554"/>
        <path fill="#161B6C" d="M23.455 19.272c-.777.513-.185 4.382 1.41 5.39 1.378.871 2.538.3 2.538.3s.34 6.06-2.552 9.143c-2.891 3.084-5.102 3.544-5.102 3.544S9.707 37.34 6.228 27.676c0 0 4.59 1.34 6.999 1.667 2.79.38 6.172-3.153 7.086-3.516 1.119-.445 1.975-.84 1.975-.84s-1.12-3.01-.407-4.34c.294-.549 1.574-1.375 1.574-1.375M28.071 19.351c.613.613.808 3.136.808 3.136l.947 1.186s-.27-.809.807-2.437c.946-1.43 2.144-2.426 2.514-3.67.215-.723-1.173-2.806-1.149-3.402.043-1.054 4.58-1.564 5.617-2.722.634-.705 1.28-2.007 1.495-2.462a.153.153 0 0 0-.09-.216c-.432-.143-1.618-.28-3.314-1.228 0 0 .641 1.311.092 1.562-.55.252-5.736-.014-7.018.26s-.002 5.563-.015 6.674c-.007.605-.694 3.32-.694 3.32"/>
        <path fill="#BCBEC0" d="M26.93 37.095s.395 8.195-8.387 14.738c0 0 .402-4.428.779-5.87l7.608-8.868z"/>
        <path fill="#F5C9B3" d="M2.562 67.035s2.388-13.652 6.632-18.64c6.366-7.48 14.821-15.129 17.343-12.623 1.072 1.067.024 4.258-3.999 8.44-2.467 2.564-7.413 5.825-9.914 8.138 0 0-5.972 12.938-7.58 16.836 0 0 1.435 3.05 1.268 3.882-.166.834-1.598 1.547-1.598 1.547s-.099 1.254-.406 1.523c-.27.237-.948.338-1.218.068-.373-.373-.813-1.117-.813-1.117S.76 74.082.314 73.532c-.71-.88.075-3.109.677-4.163.677-1.184 1.571-2.334 1.571-2.334"/>
        <path fill="#BE9200" d="M28.153 61.673s.21-1.175.393-1.575c0 0-5.44-.275-10.441-.275l.182 1.678 9.866.172zM45.892 84.195C44.68 80.28 30.593 75.02 23.318 69.989c-.846-.585 4.834-8.315 4.834-8.315l-9.865-.172c-1.69 3.677-3.816 11.495-1.783 13.618 4.175 4.359 19.75 9.554 19.75 9.554-.713 4.349-1.14 12.497-1.14 12.497 1.504 1.134 3.007 1.86 4.721 2.44 0 0 7.227-11.641 6.057-15.416"/>
    </g>
</svg>
