<svg xmlns="http://www.w3.org/2000/svg" xmlns:xlink="http://www.w3.org/1999/xlink" width="65" height="135" viewBox="0 0 65 135">
    <defs>
        <path id="a" d="M0 .63h18.243v25.344H0z"/>
        <path id="c" d="M.136.519h11.227v10.104H.136z"/>
        <path id="e" d="M.634.3h43.342v13.015H.634z"/>
        <path id="g" d="M.537.498h12.65V28H.537z"/>
    </defs>
    <g fill="none" fill-rule="evenodd">
        <path fill="#E6A17B" d="M27.241 93.682l-12.423 6.864-2.264-3.318 10.764-9.597z"/>
        <path fill="#966100" d="M30.593 92.565l-5.864-7.7-1.411 2.766s.897 3.554 3.923 6.05l3.352-1.116z"/>
        <path fill="#9F7215" d="M28.535 78.006c-1.261 2.066-2.756 3.73-4.147 6.426 1.948 5.575 6.368 8.65 6.368 8.65s14.179-6.356 12.083-15.017l-14.304-.059z"/>
        <g transform="translate(0 95.481)">
            <mask id="b" fill="#fff">
                <use xlink:href="#a"/>
            </mask>
            <path fill="#21212E" d="M11.737 9.508c2.77-1.528 6.506-3.422 6.506-3.422-.584-.79-1.372-1.997-1.372-1.997l-2.025.907L11.723.63c-1.175.763-3.054 2.464-4.804 3.945 0 0-1.785.283-2.637.226-.85-.055-2.572 9.693-3.355 13.803-.782 4.11-1.3 7-.593 7.314 1.316.585 2.52-3.53 5.08-7.932 2.047-3.52 6.323-8.48 6.323-8.48" mask="url(#b)"/>
        </g>
        <path fill="#E6A17B" d="M55.603 34.556s-8.727 8.627-15.133 9.738c-9.61 1.665-18.502 2.324-18.834-1.191-.141-1.494 2.378-3.03 8.103-3.666 3.51-.39 7.247-.164 10.625-.339 0 0 11.395-5.886 14.71-7.759 0 0 .842-3.239 1.499-3.769.656-.53 2.202-.165 2.202-.165s.872-.894 1.277-.904c.357-.009.938.343.973.722.047.521-.09 1.368-.09 1.368s.52 1.733.509 2.435c-.016 1.122-2.031 2.325-3.16 2.746-1.27.474-2.681.784-2.681.784"/>
        <path fill="#F5C9B3" d="M36.8 31.494s-2.697 2.683-3.128 6.679c-.432 3.996-.893 7.79-1.605 9.242-.47.96-6.425 6.037-10.67 10.533-1.561 1.654-2.043 2.94-2.043 2.94l-7.922-3.481s3.22-6.472 4.962-9.217c4.909-7.733 9.204-12.033 11.304-14.066 2.979-2.882 6.256-5.993 6.256-5.993l2.847 3.363z"/>
        <path fill="#F1F2F2" d="M13.035 52.117c1.889-4.324 6.325-11.59 7.858-13.174 2.47-2.553 5.288-3.76 5.288-3.76.475.351 3.79 4.422 5.205 5.065.93.423 2.282 0 2.282 0 .044 5.556.62 9.209-.53 10.676-1.351 1.726-3.288 1.362-5.127 2.663-1.84 1.301-2.522 2.859-4.022 5.109-1.68-.752-3.671-1.935-7.136-4.1-2.143-1.34-3.818-2.479-3.818-2.479"/>
        <path fill="#E6A17B" d="M30.926 31.778c.614-1.119 1.777-3.445 1.777-3.445l4.098 3.161s-1.055 1.048-1.95 2.81c0 0-.832-.066-2.345-1.012-1.054-.658-1.58-1.514-1.58-1.514"/>
        <path fill="#000" d="M34.98 34.062c-.872-.353-2.76-1.494-3.593-2.854a16.99 16.99 0 0 1-1.23 1.755c.414.73 1.823 1.91 4.032 2.917.229-.672.504-1.281.792-1.818"/>
        <path fill="#F5C9B3" d="M39.114 97.816l-7.635 13.52-3.726-1.501 4.737-14.871z"/>
        <path fill="#9F7215" d="M41.718 94.542l-8.947-3.69-.282 4.112s2.822 1.8 6.625 2.852l2.605-3.274z"/>
        <path fill="#E8C012" d="M9.74 78.442C4.343 77.328 2.632 68.2 3.199 66.857c1.753-4.15 8.233-9.45 8.233-9.45l7.994 3.52s26.876 4.374 32.001 10.187c.855.97 1.12 4.805.58 7.28-1.298 5.94-9.982 16.68-9.982 16.68s-5.181-.158-9.857-3.512c0 0 .581-6.924 3.523-11.755 0 0-14.806.936-25.951-1.365"/>
        <g transform="translate(19 -.519)">
            <mask id="d" fill="#fff">
                <use xlink:href="#c"/>
            </mask>
            <path fill="#202693" d="M11.363 6.598s-.303-3.674-.767-4.654C9.989.663 6.04-.392 3.142 1.73-.091 4.097-.213 7.21.475 8.01c1.123 1.31 4.278 2.612 4.278 2.612l6.61-4.025z" mask="url(#d)"/>
        </g>
        <path fill="#161B6C" d="M30.363 6.079l-6.61 4.025s-3.155-1.302-4.278-2.611c-.688-.801-.566-3.915 2.667-6.281 0 0-.965 1.383-.913 2.49.05 1.108 2.905.592 4.684 1.054 1.159.302 4.45 1.323 4.45 1.323"/>
        <path fill="#F5C9B3" d="M45.212 14.106s3.822 4.896 2.558 8.553c-.548 1.583-1.459 4.284-1.459 4.284s.75 1.25 1.374 1.842c0 0-.135 1.202-2.187 1.114 0 0-1.625 3.96-2.307 4.492-.683.53-5.81-.824-7.927-2.441-1.24-.946-3.336-4.357-3.336-4.357s-6.198-1.34-3.406-8c3.052-7.281 11.213-7.771 16.69-5.487"/>
        <path fill="#E6A17B" d="M38.588 18.072c1.694 2.664 2.248 2.264 2.248 2.264s-.03-1.099.501-1.506c.53-.406 5.447-.446 6.114-.633-.842-2.259-2.239-4.09-2.239-4.09-2.382-.995-5.273-1.462-8.03-1.075-.032 1.814.651 3.854 1.406 5.04"/>
        <path fill="#F4D600" d="M22.596 10.886S24.34 9.614 28 7.711c2.178-1.132 3.848-2.03 3.848-2.03s-.305-.376-1.064-.786c-.59-.318-2.692.546-3.06.69-3.6 1.394-5.102 3.823-5.203 4.057-.178.418.075 1.244.075 1.244"/>
        <path fill="#FFF" d="M44.138 26.538s1.198-3.316 1.096-4.74c0 0-1.193.231-2.223 1.641-.986 1.35-1.147 2.118-1.147 2.118s1.253.795 2.274.981"/>
        <path fill="#161B24" d="M45.234 21.798c-.788.404-1.39 1.001-1.85 1.682-.229.343-.465.706-.667 1.07-.21.35-.417.742-.56 1.067v.001l-.133-.313c.634.488 1.33.961 2.116 1.22.008.001.013.01.011.017a.015.015 0 0 1-.016.01c-.844-.077-1.647-.384-2.43-.743a.246.246 0 0 1-.14-.26l.007-.054v-.004c.088-.517.292-.905.513-1.31.241-.388.49-.752.797-1.097.317-.336.658-.657 1.066-.875.397-.226.837-.392 1.286-.41"/>
        <path fill="#161B24" d="M45.234 21.798c.07.992-.363 2.645-.993 4.456 0 0-.326-.149-.401-1.068-.071-.863.938-3.249.938-3.249l.456-.139z"/>
        <path fill="#E6A17B" d="M44.998 31.053s-.2.468-.33.744c0 0-3.326-1.132-3.542-1.669-.16-.4-.295-1.489-.295-1.489s.32.45.747 1.021c.25.336 3.42 1.393 3.42 1.393M31.771 22.02c-.047-.028-.025-.097.03-.096.453.011 1.418.108 1.907.392.478.278.345 1.347.232 1.646-.103.274-.798-.22-.843.208-.03.296.382.672.534.798a.04.04 0 0 1-.012.07c-.266.092-1.256.377-1.53-.425-.16-.468.393-1.026.874-1.573.148-.169-.565-.667-1.192-1.02"/>
        <path fill="#202693" d="M46.953 20.848s-.554.69-.776.732c-.126.023-1.472-.707-2.048-.732a63.592 63.592 0 0 1-1.451-.092s.69-.388 1.576-.578c.74-.16 2.699.67 2.699.67M36.187 26.225l-.68-1.357s.335-2.508-.137-3.235c-.885-1.366-3.632-1.38-4.498-1.038-.867.339-1.093 4.247.256 5.565 1.167 1.138 2.421.82 2.421.82s-.928 5.999-4.399 8.412c-3.47 2.416-7.06 1.788-7.06 1.788s-8.426-1.776-9.818-11.952c0 0 6.496-1.4 8.682-2.308 2.186-.907-1.176-8.556-.084-10.33 1.091-1.771 7.57-8.79 14.998-6.948 7.428 1.84 7.755 4.556 9.43 6.023 1.461 1.28 2.593 1.662 2.984 1.892a.153.153 0 0 1 .045.23c-.306.4-1.209 1.539-1.975 2.097-1.257.916-5.8.47-6.06 1.492-.148.578.775 2.904.415 3.567-.62 1.14-2 1.864-3.224 3.067-1.392 1.367-1.296 2.215-1.296 2.215"/>
        <path fill="#161B6C" d="M30.872 20.594c-.867.34-1.093 4.248.257 5.565 1.166 1.14 2.42.822 2.42.822s-.928 5.997-4.4 8.412c-3.47 2.414-7.06 1.786-7.06 1.786s-8.425-1.774-9.816-11.952c0 0 4.21 2.266 6.498 3.088 2.65.951 6.694-1.799 7.663-1.964 1.187-.203 2.107-.412 2.107-.412s-.47-3.175.505-4.328c.402-.476 1.826-1.017 1.826-1.017M35.37 21.632c.472.728.137 3.236.137 3.236l.68 1.356s-.096-.847 1.296-2.215c1.223-1.203 2.603-1.926 3.223-3.066.361-.663-.563-2.989-.415-3.566.261-1.023 4.804-.578 6.061-1.494.766-.558 1.67-1.697 1.975-2.096a.154.154 0 0 0-.045-.23c-.39-.23-1.523-.612-2.985-1.892 0 0 .355 1.416-.235 1.548-.59.131-5.607-1.208-6.918-1.207-1.31.001-1.16 5.441-1.404 6.524-.132.59-1.37 3.102-1.37 3.102"/>
        <g transform="translate(21 36.481)">
            <mask id="f" fill="#fff">
                <use xlink:href="#e"/>
            </mask>
            <path fill="#F5C9B3" d="M37.392 6.434s-12.475 6.786-17.427 6.879c-3.545.067-8.95-1.754-12.706-3.643C3.422 7.74.057 5.396.717 3.512c.5-1.427 2.991-2.158 8.578.234 3.502 1.499 7.68 3.4 11.17 4.4 0 0 10.61-2.845 16.083-4.504 0 0 2.267-3 3.068-3.284.8-.285 2.148.577 2.148.577S42.891.375 43.28.5c.342.11.777.639.684 1.01-.128.51-.54 1.27-.54 1.27s-.085 1.82-.328 2.485c-.39 1.062-1.832 1.528-3.04 1.428-1.559-.13-2.663-.26-2.663-.26" mask="url(#f)"/>
        </g>
        <g transform="translate(23 106.481)">
            <mask id="h" fill="#fff">
                <use xlink:href="#g"/>
            </mask>
            <path fill="#21212E" d="M9.453 8.042c1.552-2.755 3.734-6.332 3.734-6.332A51.748 51.748 0 0 1 10.97.732L9.725 2.57 4.773.5C4.175 1.764 3.472 4.2 2.762 6.38c0 0-1.371 1.18-2.124 1.58-.753.4 2.908 9.597 4.404 13.503 1.495 3.908 2.575 6.64 3.34 6.534 1.428-.195.288-4.328.15-9.418-.11-4.07.92-10.537.92-10.537" mask="url(#h)"/>
        </g>
        <path fill="#BE9200" d="M19.426 60.928l1.38-1.576-8.842-4.488-.532 2.543z"/>
        <path fill="#BE9200" d="M11.432 57.407s-6.48 5.3-8.232 9.45c-.568 1.344 1.143 10.47 6.54 11.585 11.145 2.3 25.95 1.365 25.95 1.365-2.941 4.83-3.522 11.755-3.522 11.755a18.332 18.332 0 0 0 3.513 1.964s8.68-13.173 8.658-15.27c-.023-2.271-1.29-4.608-1.29-4.608S11.905 71.437 10.983 70.7c-.921-.737 3.686-12.532 3.686-12.532l-3.237-.761z"/>
    </g>
</svg>
