<svg xmlns="http://www.w3.org/2000/svg" xmlns:xlink="http://www.w3.org/1999/xlink" width="50" height="129" viewBox="0 0 50 129">
    <defs>
        <path id="a" d="M.506.907h18.802V14H.506z"/>
        <path id="c" d="M0 .165h26.898v41.08H0z"/>
    </defs>
    <g fill="none" fill-rule="evenodd">
        <path fill="#E6A17B" d="M33.678 105.16l-9.846 16.815-3.579-1.823 7.078-18.415z"/>
        <path fill="#966100" d="M36.407 102.284l-8.586-4.465-.644 4.07s2.652 2.043 6.348 3.426l2.883-3.031z"/>
        <g transform="translate(18 114.87)">
            <mask id="b" fill="#fff">
                <use xlink:href="#a"/>
            </mask>
            <path fill="#000" d="M3.328.907l4.9 2.192 1.06-1.42s1.288.645 2.191 1.032c0 0-4.239 5.852-3.889 6.239 2.105 2.325 11.978 2.954 11.712 4.45-.124.698-2.679.623-7.774.564-5.13-.058-8.399.059-10.236-.053 0 0-.903-1.528-.774-4.107.13-2.583 1.335-6.07 2.81-8.896" mask="url(#b)"/>
        </g>
        <path fill="#9F7215" d="M40.718 86.177C39.682 83.692 17.57 73.21 15.314 71.9c-2.027-1.177-2.211 4.937-1.352 6.507 2.45 4.478 15.463 10.308 15.463 10.308-.676 2.873-1.521 5.915-2.249 8.688 3.87 4.053 10.688 5.712 10.688 5.712s5.354-10.937 2.854-16.937"/>
        <path fill="#E6A17B" d="M10.98 65.338s.227-12.269 4.039-17.536c5.717-7.9 11.626-14.579 14.317-12.295 1.144.972.413 3.83-3.243 8.282-2.241 2.73-5.075 5.176-7.372 7.66 0 0-4.051 12.168-5.117 15.825 0 0 1.658 2.906 1.558 3.744-.1.838-1.461 1.655-1.461 1.655s-.001 1.249-.283 1.539c-.25.255-.912.409-1.201.162-.398-.34-.891-1.042-.891-1.042s-1.582-.878-2.064-1.388c-.772-.816-.168-3.084.345-4.173.578-1.225 1.373-2.433 1.373-2.433"/>
        <path fill="#202693" d="M22.79 5.458s-.827-3.593-1.427-4.497c-.783-1.18-4.842-1.658-7.407.858-2.86 2.806-2.535 5.905-1.74 6.6 1.3 1.133 4.609 1.97 4.609 1.97l5.965-4.93z"/>
        <path fill="#161B6C" d="M22.79 5.458l-5.965 4.931s-3.31-.837-4.608-1.97c-.796-.695-1.121-3.794 1.739-6.6 0 0-.756 1.507-.547 2.596.21 1.09 2.96.17 4.787.372 1.19.131 4.594.671 4.594.671"/>
        <path fill="#F5C9B3" d="M32.398 28.524s-1.48 3.506-.365 7.367c1.115 3.862 2.126 7.547 2.017 9.16-.071 1.067-3.658 8.022-5.882 13.79-.82 2.124-.778 3.496-.778 3.496l-8.65-.22s.527-7.21 1.1-10.41c1.612-9.016 3.957-14.623 5.13-17.3 1.666-3.797 3.52-7.916 3.52-7.916l3.908 2.033z"/>
        <path fill="#F1F2F2" d="M18.3 55.885c.11-4.717 1.38-12.394 2.2-14.44 1.32-3.3 4.617-7.478 4.617-7.478.573.144 4.191 4.83 5.746 4.873 1.554.044 2.104-1.075 2.104-1.075 2.145 5.125 3.912 8.333 3.404 10.126-.596 2.11-2.527 2.507-3.736 4.41-1.209 1.9-1.503 4.011-1.893 7.154-1.839-.06-4.839-.69-8.704-2.017-1.91-.656-3.738-1.553-3.738-1.553"/>
        <path fill="#E6A17B" d="M27.782 29.272c.94-1.722 1.896-2.743 1.896-2.743l2.72 1.994s-.579 1.37-.74 3.34c0 0-.506.788-1.895-.333-1.528-1.235-1.98-2.258-1.98-2.258"/>
        <path fill="#F5C9B3" d="M38.636 11.274s4.484 4.297 3.758 8.099c-.316 1.644-.83 4.448-.83 4.448s.92 1.13 1.624 1.625c0 0 .038 1.21-2.006 1.417 0 0-1.04 4.152-1.639 4.776-.599.623-5.867.017-8.195-1.28-1.361-.758-3.925-3.834-3.925-3.834s-6.326-.436-4.517-7.43c1.976-7.642 9.983-9.297 15.73-7.821"/>
        <path fill="#E6A17B" d="M32.65 16.149c2.058 2.393 2.548 1.918 2.548 1.918s-.188-1.083.28-1.562c.467-.478 5.327-1.222 5.961-1.502-1.158-2.116-2.803-3.73-2.803-3.73-2.5-.641-5.427-.688-8.1.09.227 1.799 1.196 3.72 2.113 4.786"/>
        <path fill="#F4D600" d="M15.791 11.329s1.543-1.51 4.895-3.917c1.992-1.432 3.516-2.562 3.516-2.562s-.356-.327-1.166-.624c-.629-.23-2.586.927-2.93 1.12-3.362 1.897-4.5 4.517-4.566 4.762-.117.439.251 1.22.251 1.22"/>
        <path fill="#FFF" d="M39.355 23.732s.71-3.454.406-4.848c0 0-1.148.4-1.966 1.943-.782 1.476-.831 2.259-.831 2.259s1.355.609 2.39.646"/>
        <path fill="#000" d="M31.687 31.59c-.678-.217-2.4-.924-4.201-2.355-.297.55-.33 1.279-.588 1.958.659.518 2.34 1.694 4.745 2.38-.043-.71-.02-1.377.044-1.983"/>
        <path fill="#161B24" d="M39.76 18.883c-.72.513-1.231 1.19-1.59 1.93-.177.372-.358.765-.507 1.153-.157.377-.304.795-.4 1.138h-.002l-.175-.29c.697.391 1.453.76 2.27.902a.016.016 0 0 1 .012.017c0 .007-.007.012-.014.013-.846.045-1.684-.145-2.511-.388a.247.247 0 0 1-.178-.238l.002-.053v-.004c.011-.525.158-.938.319-1.37a7.86 7.86 0 0 1 .63-1.2c.267-.379.559-.744.931-1.019.36-.28.772-.508 1.214-.59"/>
        <path fill="#161B24" d="M39.76 18.883c.212.972.02 2.67-.344 4.553 0 0-.343-.1-.55-1-.194-.844.462-3.35.462-3.35l.432-.203z"/>
        <path fill="#E6A17B" d="M40.854 28.077s-.132.49-.221.784c0 0-3.453-.644-3.744-1.144-.217-.374-.505-1.432-.505-1.432s.382.398.885.903c.296.297 3.585.889 3.585.889M26.468 21.032c-.05-.02-.038-.091.017-.098.45-.054 1.419-.097 1.944.115.512.206.534 1.283.465 1.595-.063.286-.821-.103-.804.327.01.297.474.609.642.713a.04.04 0 0 1-.002.07c-.25.13-1.19.555-1.575-.2-.226-.44.242-1.072.64-1.683.121-.188-.655-.58-1.327-.84"/>
        <path fill="#202693" d="M41.325 17.696s-.45.764-.664.836c-.12.04-1.556-.49-2.13-.431-.523.053-1.45.117-1.45.117s.628-.483 1.476-.798c.71-.264 2.768.276 2.768.276M31.442 24.56l-.867-1.244s-.03-2.53-.6-3.183c-1.072-1.225-3.792-.843-4.601-.383-.81.46-.473 4.36 1.052 5.47 1.318.96 2.513.468 2.513.468s-.06 6.068-3.148 8.955c-3.09 2.887-5.325 3.2-5.325 3.2s-10-.97-12.835-10.842c0 0 6.228-2.316 8.26-3.527 2.034-1.21-2.39-8.3-1.563-10.21.827-1.911 6.232-9.785 13.848-9.028 7.615.757 8.328 3.398 10.196 4.61 1.63 1.058 2.804 1.273 3.224 1.444a.153.153 0 0 1 .077.222c-.245.439-.975 1.695-1.653 2.358-1.113 1.087-5.673 1.297-5.785 2.346-.063.593 1.185 2.763.922 3.47-.45 1.217-1.712 2.13-2.75 3.497-1.182 1.553-.965 2.378-.965 2.378"/>
        <path fill="#F5C9B3" d="M35.375 107.009l-9.307 14.966-3.579-1.823 6.54-16.567z"/>
        <path fill="#9F7215" d="M38.259 103.978l-8.587-4.464-.643 4.07s2.652 2.043 6.347 3.425l2.883-3.031z"/>
        <path fill="#21212E" d="M23.334 116.162l4.9 2.192 1.289-1.805s1.29.645 2.193 1.031c0 0-4.24 5.852-3.89 6.24 2.105 2.325 11.979 2.953 11.713 4.45-.124.698-2.68.622-7.774.564-5.13-.058-8.4.058-10.237-.054 0 0-.902-1.528-.773-4.107.129-2.58 1.335-6.07 2.579-8.51"/>
        <path fill="#E8C012" d="M13.84 77.179c-1.66-2.425 1.305-10.925 3.57-14.28l10.465.343s21.897 12.7 21.255 21.693c-.369 5.16-9.646 19.95-9.646 19.95s-6.818-1.658-10.688-5.712c0 0 2.211-7.923 3.317-11.424 0 0-14.862-5.591-18.273-10.57"/>
        <path fill="#161B6C" d="M25.374 19.75c-.81.461-.473 4.36 1.052 5.471 1.318.96 2.513.466 2.513.466s-.06 6.07-3.148 8.956c-3.09 2.887-5.325 3.2-5.325 3.2s-10-.969-12.835-10.842c0 0 4.493 1.64 6.874 2.124 2.759.563 6.367-2.739 7.303-3.042 1.145-.37 2.025-.708 2.025-.708s-.918-3.076-.12-4.357c.329-.528 1.66-1.268 1.66-1.268M29.975 20.133c.57.652.6 3.183.6 3.183l.867 1.245s-.217-.825.965-2.379c1.038-1.365 2.299-2.279 2.75-3.496.262-.707-.985-2.877-.922-3.47.112-1.049 4.672-1.26 5.784-2.346.679-.663 1.409-1.919 1.654-2.359a.152.152 0 0 0-.077-.221c-.42-.172-1.594-.386-3.225-1.444 0 0 .554 1.35-.011 1.565-.565.215-5.722-.392-7.02-.203-1.297.189-.368 5.551-.454 6.659-.046.602-.911 3.266-.911 3.266"/>
        <path fill="#BE9200" d="M42.954 86.177C41.918 83.692 21.186 75.43 19.62 73.344c-.5-.667 8.254-10.103 8.254-10.103l.339-2.033-11.216-.5.412 2.191c-2.265 3.354-5.231 11.855-3.57 14.28 3.41 4.98 18.273 10.57 18.273 10.57-1.105 3.5-3.317 11.424-3.317 11.424 3.87 4.053 10.688 5.712 10.688 5.712s5.97-12.708 3.47-18.708"/>
        <path fill="#BCBEC0" d="M26.898 37.843s.394 8.195-8.388 14.738c0 0 .402-4.428.779-5.87l7.609-8.868z"/>
        <g transform="translate(0 35.87)">
            <mask id="d" fill="#fff">
                <use xlink:href="#c"/>
            </mask>
            <path fill="#F5C9B3" d="M2.53 31.913s2.388-13.652 6.632-18.64C15.528 5.792 23.982-1.857 26.505.65c1.072 1.066.023 4.257-4 8.438-2.466 2.565-7.412 5.826-9.913 8.139 0 0-5.972 12.939-7.581 16.836 0 0 1.436 3.049 1.269 3.883-.166.833-1.598 1.546-1.598 1.546s-.1 1.255-.406 1.523c-.271.237-.948.338-1.218.068-.373-.372-.813-1.117-.813-1.117S.727 38.96.282 38.41c-.71-.88.075-3.11.677-4.163a23.055 23.055 0 0 1 1.57-2.334" mask="url(#d)"/>
        </g>
    </g>
</svg>
