<svg xmlns="http://www.w3.org/2000/svg" xmlns:xlink="http://www.w3.org/1999/xlink" width="37" height="140" viewBox="0 0 37 140">
    <defs>
        <path id="a" d="M.312.519h18.34V13H.312z"/>
        <path id="c" d="M.748.519h18.339V13H.748z"/>
    </defs>
    <g fill="none" fill-rule="evenodd">
        <path fill="#E6A17B" d="M22.412 114.132l-1.423 17.567-4.016.017-1.771-17.723z"/>
        <g transform="translate(16 126.111)">
            <mask id="b" fill="#fff">
                <use xlink:href="#a"/>
            </mask>
            <path fill="#000" d="M.312 1.968l5.234.347.146-1.796s1.923.044 2.585.286c0 0-1.693 6.757-1.343 7.144 2.105 2.327 11.978 2.955 11.712 4.451-.124.698-2.679.622-7.774.565-5.13-.059-8.005.057-9.842-.055 0 0-.316-6.135-.718-10.942" mask="url(#b)"/>
        </g>
        <path fill="#966100" d="M23.588 110.117l-9.678-.038 1.292 3.914s3.292.602 7.21.14l1.176-4.016z"/>
        <path fill="#9F7215" d="M14.831 110.843l-2.089-.237s-1.773-12.771-2.39-27.447c0 0 4.283 13.343 4.933 21.506.198 2.486-.454 6.178-.454 6.178"/>
        <path fill="#202693" d="M11.127 4.724S9.68 1.332 8.93.55C7.95-.475 3.87-.23 1.79 2.7-.531 5.962.335 8.955 1.24 9.5c1.48.887 4.884 1.128 4.884 1.128l5.003-5.904z"/>
        <path fill="#161B6C" d="M11.127 4.724l-5.003 5.904S2.72 10.388 1.24 9.5c-.906-.544-1.772-3.537.549-6.802 0 0-.478 1.616-.08 2.651.397 1.036 2.943-.355 4.777-.477 1.195-.08 4.64-.148 4.64-.148"/>
        <path fill="#F5C9B3" d="M22.616 26.296s-.579 3.761 1.447 7.233c2.025 3.472 3.906 6.8 4.195 8.39.289 1.591-2.569 21.867-2.569 21.867l-8.408-.414s.399-27.955.562-32.013c.144-3.616 1.648-6.333 1.648-6.333l3.125 1.27z"/>
        <path fill="#F1F2F2" d="M16.049 56.27c0-4.331-.207-16.194-.01-17.817.222-1.834 1.222-4.278 1.222-4.278.59 0 4.87 2.837 6.389 2.5 1.517-.338 1.777-1.555 1.777-1.555 3.333 4.443 5.444 7.22 5.444 7.999 0 2.007-2.095 7.325-3.015 13.766 0 0-5.595-.704-7.47-.814-1.276-.075-4.337.2-4.337.2"/>
        <path fill="#E6A17B" d="M18.324 28.15c.489-1.9 1.167-3.123 1.167-3.123l3.125 1.269s-.226 1.47.099 3.419c0 0-.298.888-1.918.14-1.784-.823-2.473-1.705-2.473-1.705"/>
        <path fill="#F5C9B3" d="M27.75 7.657s5.171 3.44 5.125 7.31c-.02 1.674-.034 4.525-.034 4.525s1.106.951 1.885 1.314c0 0 .252 1.184-1.724 1.747 0 0-.293 4.271-.773 4.991-.479.72-5.77 1.05-8.292.184-1.474-.507-4.539-3.083-4.539-3.083s-6.304.684-5.755-6.517c.6-7.872 8.19-10.91 14.107-10.47"/>
        <path fill="#E6A17B" d="M22.715 13.51c2.448 1.994 2.848 1.44 2.848 1.44s-.376-1.033 0-1.587c.375-.553 5.028-2.141 5.602-2.53-1.512-1.878-3.415-3.176-3.415-3.176-2.574-.191-5.464.278-7.958 1.515.541 1.73 1.833 3.452 2.923 4.339"/>
        <path fill="#F4D600" d="M5.272 11.735S6.525 9.978 9.4 7.017c1.71-1.76 3.01-3.14 3.01-3.14s-.408-.26-1.258-.41c-.66-.116-2.382 1.368-2.686 1.62-2.976 2.458-3.635 5.237-3.656 5.491-.038.452.462 1.157.462 1.157"/>
        <path fill="#FFF" d="M30.652 19.794s.09-3.525-.455-4.844c0 0-1.058.596-1.592 2.259-.51 1.59-.42 2.37-.42 2.37s1.44.36 2.467.215"/>
        <path fill="#000" d="M22.676 29.443c-.71-.045-2.275-.267-4.37-1.214a15.847 15.847 0 0 0-.37 2c.765.34 2.684 1.07 5.181 1.148a12.243 12.243 0 0 1-.44-1.934"/>
        <path fill="#161B24" d="M30.197 14.95c-.62.632-1.003 1.39-1.225 2.18-.108.397-.219.817-.296 1.224-.089.4-.16.837-.194 1.191l-.224-.255c.754.263 1.564.493 2.392.49.008 0 .015.005.015.013.001.007-.005.013-.01.015-.826.193-1.685.155-2.542.061a.245.245 0 0 1-.216-.204l-.009-.05v-.006c-.08-.518-.009-.95.072-1.405.107-.444.228-.868.411-1.292.195-.419.418-.83.736-1.167.305-.34.67-.636 1.09-.795"/>
        <path fill="#161B24" d="M30.197 14.95c.38.92.49 2.624.463 4.542 0 0-.356-.039-.718-.887-.339-.797-.134-3.38-.134-3.38l.39-.275z"/>
        <path fill="#E6A17B" d="M32.893 23.807s-.043.507-.08.81c0 0-3.513-.025-3.886-.466-.28-.33-.75-1.321-.75-1.321s.446.326 1.03.734c.344.24 3.686.243 3.686.243M17.491 19.406c-.053-.01-.053-.083-.002-.1.434-.132 1.38-.345 1.934-.229.54.113.753 1.17.74 1.488-.012.293-.828.044-.735.465.063.29.575.516.758.588.03.011.035.05.01.07-.223.171-1.072.755-1.585.08-.3-.394.05-1.099.334-1.769.087-.207-.747-.456-1.454-.593"/>
        <path fill="#202693" d="M31.529 13.505s-.308.831-.506.94c-.112.061-1.62-.207-2.174-.049-.505.144-1.406.371-1.406.371s.534-.587 1.313-1.046c.652-.384 2.773-.216 2.773-.216M23.008 22.004l-1.073-1.073s-.473-2.486-1.15-3.028c-1.27-1.016-3.88-.162-4.597.434-.715.596.303 4.376 2 5.2 1.466.713 2.555.017 2.555.017s1.011 5.984-1.52 9.37c-2.533 3.386-4.679 4.088-4.679 4.088S4.53 37.819 0 28.6c0 0 5.722-3.377 7.51-4.927 1.79-1.55-3.814-7.75-3.337-9.775.476-2.027 4.41-10.73 12.04-11.326 7.63-.596 8.796 1.878 10.85 2.742 1.79.754 2.983.758 3.427.853a.153.153 0 0 1 .115.205c-.164.476-.66 1.84-1.212 2.613-.904 1.265-5.356 2.275-5.28 3.328.041.595 1.651 2.51 1.518 3.254-.229 1.277-1.31 2.399-2.092 3.926-.889 1.737-.53 2.51-.53 2.51"/>
        <path fill="#F5C9B3" d="M23.848 114.132l-1.423 17.567-4.016.017-1.771-17.723z"/>
        <path fill="#9F7215" d="M25.024 110.117l-9.678-.038 1.292 3.914s3.292.602 7.21.14l1.176-4.016z"/>
        <g transform="translate(17 126.111)">
            <mask id="d" fill="#fff">
                <use xlink:href="#c"/>
            </mask>
            <path fill="#21212E" d="M.748 1.968l5.234.347.146-1.796S8.05.563 8.712.805c0 0-1.692 6.757-1.342 7.144 2.104 2.327 11.978 2.955 11.712 4.451-.125.698-2.679.622-7.774.565-5.13-.059-8.005.057-9.842-.055 0 0-.316-6.135-.718-10.942" mask="url(#d)"/>
        </g>
        <path fill="#E8C012" d="M14.888 111.2s-3.203-20.08-4.405-33.754c-.248-2.83.625-6.345 2.52-9.395 0 0 1.514-2.318 3.358-5.664l10.465.343s4.517 21.775 3.43 30.725c-.914 7.521-4.641 18.136-4.641 18.136s-6.05.62-10.727-.39"/>
        <path fill="#BE9200" d="M24.637 96.574c-5.2-12.122-10.362-22.777-8.64-24.292l4.073-3.743c3.08-2.834 6.756-5.809 6.756-5.809l.973-2.532-12.12-.527.682 2.716c-2.478 3.586-5.25 8.476-5.25 8.476-1.503 2.081-1.145 8.057-.9 10.888.713 8.222 4.676 29.45 4.676 29.45 4.677 1.01 10.727.39 10.727.39s.453-11.68-.977-15.017"/>
        <path fill="#161B6C" d="M16.188 18.337c-.715.596.303 4.375 2 5.2 1.465.713 2.555.016 2.555.016s1.011 5.984-1.52 9.37c-2.534 3.386-4.679 4.088-4.679 4.088S4.53 37.82 0 28.601c0 0 4.711.821 7.14.88 2.815.066 5.785-3.818 6.652-4.28 1.063-.568 1.87-1.056 1.87-1.056s-1.447-2.866-.886-4.267c.231-.579 1.412-1.54 1.412-1.54M20.785 17.903c.677.542 1.15 3.028 1.15 3.028l1.073 1.073s-.358-.774.53-2.512c.783-1.527 1.864-2.649 2.093-3.926.133-.742-1.477-2.659-1.52-3.253-.074-1.053 4.378-2.063 5.282-3.328.55-.772 1.048-2.138 1.212-2.613a.153.153 0 0 0-.114-.205c-.445-.095-1.638-.099-3.43-.853 0 0 .784 1.232.266 1.543-.52.311-5.702.622-6.946 1.036-1.244.415.614 5.53.725 6.635.06.601-.321 3.375-.321 3.375"/>
        <path fill="#F5C9B3" d="M19.858 36.818c1.502.178 2.644 3.337 2.055 9.109-.36 3.54-2.252 10.964-2.796 14.328 0 0 .161 15.625.211 17.76 0 0 1.011 1.928 1.967 4.29.652 1.61-.102 1.617-.585 1.06-.483-.557-1.86-2.573-1.86-2.573s.363 6.037-.853 6.626c-.776.376-.37-3.08-.44-4.372 0 0-2.28 4.929-3.077 4.92-.798-.008.268-2.214 1.475-5.065 0 0-2.21 2.38-3.357 2.108-.944-.225 4.593-5.777 4.54-6.746 0 0-3.407-11.508-3.159-19.007.324-9.817 2.35-22.856 5.88-22.438"/>
    </g>
</svg>
