<svg xmlns="http://www.w3.org/2000/svg" xmlns:xlink="http://www.w3.org/1999/xlink" width="50" height="144" viewBox="0 0 50 144">
    <defs>
        <path id="a" d="M.661.257H11.79v10.388H.66z"/>
        <path id="c" d="M0 .291h26.898v41.08H0z"/>
    </defs>
    <g fill="none" fill-rule="evenodd">
        <path fill="#E6A17B" d="M29.34 104.796L15.085 118.08l-2.905-2.773 12.062-15.612z"/>
        <path fill="#966100" d="M32.78 102.823l-6.946-6.74-1.783 3.716s1.954 2.717 5.098 5.1l3.631-2.076z"/>
        <path fill="#9F7215" d="M40.718 86.177C39.682 83.692 17.57 73.209 15.314 71.9c-2.027-1.178-2.211 4.936-1.352 6.506 2.45 4.478 14.132 9.648 14.132 9.648-.94 2.23-1.974 4.86-2.701 7.634 3.523 4.697 6.81 6.81 6.81 6.81s11.015-10.321 8.515-16.321"/>
        <path fill="#E6A17B" d="M15.263 71.925S10.34 58.578 11.454 54.63c2.471-8.75 11.71-17.59 14.942-16.174 1.374.604.841 5.074-2.897 9.07-2.986 3.191-5.306 5.61-6.795 8.648 0 0 .721 7.824 1.853 14.62l-3.294 1.131z"/>
        <g transform="translate(11 -.257)">
            <mask id="b" fill="#fff">
                <use xlink:href="#a"/>
            </mask>
            <path fill="#202693" d="M11.79 5.714s-.827-3.593-1.426-4.497C9.58.037 5.52-.44 2.956 2.075.096 4.881.42 7.98 1.216 8.675c1.3 1.133 4.609 1.97 4.609 1.97l5.965-4.93z" mask="url(#b)"/>
        </g>
        <path fill="#161B6C" d="M22.79 5.457l-5.965 4.931s-3.31-.837-4.608-1.97c-.796-.695-1.121-3.794 1.739-6.6 0 0-.756 1.507-.547 2.597.21 1.088 2.96.168 4.788.371 1.189.131 4.593.671 4.593.671"/>
        <path fill="#F5C9B3" d="M32.398 28.523s-1.48 3.506-.365 7.367c1.115 3.862 2.126 7.548 2.017 9.16-.071 1.068-3.658 8.022-5.882 13.79-.82 2.124-.778 3.496-.778 3.496l-8.65-.22s.527-7.21 1.1-10.41c1.613-9.016 3.957-14.623 5.13-17.3 1.666-3.797 3.52-7.916 3.52-7.916l3.908 2.033z"/>
        <path fill="#F1F2F2" d="M18.3 55.885c.109-4.717 1.38-12.394 2.199-14.441 1.32-3.3 4.618-7.477 4.618-7.477.573.144 4.192 4.829 5.746 4.873 1.554.044 2.104-1.074 2.104-1.074 2.145 5.124 3.912 8.332 3.405 10.125-.597 2.11-2.528 2.507-3.737 4.409-1.209 1.9-1.503 4.012-1.892 7.155-1.84-.06-4.84-.691-8.705-2.017-1.91-.655-3.738-1.553-3.738-1.553"/>
        <path fill="#E6A17B" d="M27.783 29.271c.938-1.722 1.895-2.743 1.895-2.743l2.72 1.994s-.578 1.37-.74 3.34c0 0-.506.788-1.894-.333-1.53-1.235-1.981-2.258-1.981-2.258"/>
        <path fill="#F5C9B3" d="M38.636 11.273s4.484 4.297 3.757 8.098c-.315 1.645-.83 4.448-.83 4.448s.921 1.131 1.624 1.626c0 0 .04 1.21-2.005 1.416 0 0-1.04 4.153-1.639 4.776-.599.624-5.867.018-8.195-1.279-1.362-.758-3.925-3.834-3.925-3.834s-6.327-.437-4.518-7.429c1.977-7.643 9.983-9.298 15.731-7.822"/>
        <path fill="#E6A17B" d="M32.65 16.148c2.058 2.393 2.548 1.918 2.548 1.918s-.188-1.083.28-1.562c.467-.478 5.327-1.222 5.961-1.502-1.158-2.116-2.803-3.73-2.803-3.73-2.5-.641-5.427-.688-8.1.09.227 1.799 1.196 3.72 2.113 4.786"/>
        <path fill="#F4D600" d="M15.792 11.328s1.543-1.509 4.894-3.917c1.993-1.432 3.516-2.562 3.516-2.562s-.355-.326-1.165-.624c-.63-.23-2.587.927-2.93 1.121-3.362 1.896-4.501 4.516-4.566 4.761-.117.44.25 1.221.25 1.221"/>
        <path fill="#FFF" d="M39.355 23.73s.71-3.453.406-4.847c0 0-1.148.4-1.966 1.943-.782 1.476-.831 2.26-.831 2.26s1.355.608 2.39.645"/>
        <path fill="#000" d="M31.687 31.589c-.678-.217-2.4-.924-4.201-2.355-.296.55-.33 1.279-.588 1.958.659.519 2.342 1.695 4.745 2.38-.043-.71-.02-1.377.044-1.983"/>
        <path fill="#161B24" d="M39.76 18.883c-.72.513-1.232 1.19-1.59 1.93-.177.372-.359.765-.507 1.153-.158.377-.305.795-.4 1.138h-.002l-.175-.29c.697.39 1.453.76 2.27.902a.016.016 0 0 1 .012.017c0 .007-.007.012-.014.013-.846.045-1.685-.145-2.512-.388a.247.247 0 0 1-.177-.238l.001-.053v-.004c.012-.525.16-.937.32-1.37.182-.42.376-.815.631-1.201.265-.378.557-.743.93-1.018.36-.281.771-.508 1.213-.591"/>
        <path fill="#161B24" d="M39.76 18.883c.212.972.02 2.669-.344 4.553 0 0-.344-.101-.55-1-.194-.844.462-3.35.462-3.35l.432-.203z"/>
        <path fill="#E6A17B" d="M40.854 28.076s-.132.491-.221.784c0 0-3.453-.644-3.744-1.144-.217-.374-.505-1.432-.505-1.432s.382.398.885.903c.296.297 3.585.89 3.585.89M26.468 21.031c-.05-.02-.039-.09.016-.098.45-.054 1.42-.097 1.944.115.512.206.534 1.283.465 1.595-.062.286-.82-.103-.804.327.011.297.475.61.642.713a.04.04 0 0 1-.002.07c-.25.13-1.189.555-1.574-.2-.226-.44.242-1.072.64-1.682.122-.189-.656-.58-1.327-.84"/>
        <path fill="#33C" d="M41.325 17.695s-.45.764-.664.836c-.12.041-1.557-.489-2.13-.43-.523.052-1.45.116-1.45.116s.628-.483 1.476-.798c.71-.264 2.768.276 2.768.276"/>
        <path fill="#202693" d="M31.442 24.56l-.867-1.245s-.03-2.53-.6-3.183c-1.072-1.224-3.791-.843-4.6-.383-.81.461-.474 4.361 1.05 5.471 1.319.96 2.515.467 2.515.467s-.06 6.068-3.148 8.956c-3.09 2.886-5.326 3.199-5.326 3.199S10.466 36.873 7.63 27c0 0 6.228-2.316 8.262-3.527 2.033-1.21-2.391-8.299-1.564-10.21.826-1.911 6.23-9.785 13.847-9.028 7.615.758 8.328 3.398 10.196 4.61 1.63 1.058 2.804 1.273 3.225 1.444.09.037.124.137.076.222-.245.439-.975 1.696-1.653 2.358-1.113 1.087-5.673 1.297-5.785 2.346-.063.593 1.185 2.763.923 3.47-.451 1.217-1.712 2.131-2.751 3.497-1.182 1.553-.965 2.378-.965 2.378"/>
        <path fill="#F5C9B3" d="M35.375 107.008l-9.307 14.966-3.579-1.823 6.54-16.567z"/>
        <path fill="#9F7215" d="M38.259 103.977l-8.587-4.464-.643 4.071s2.651 2.042 6.346 3.424l2.884-3.031z"/>
        <path fill="#21212E" d="M27.826 123.819c1.62-2.716 3.89-6.24 3.89-6.24-.904-.385-2.193-1.03-2.193-1.03l-1.29 1.805-4.9-2.192c-.629 1.252-1.392 3.669-2.155 5.83 0 0-1.399 1.145-2.162 1.527-.763.382 2.671 9.666 4.07 13.609 1.4 3.942 2.41 6.699 3.18 6.613 1.43-.16.393-4.32.381-9.411-.009-4.072 1.18-10.511 1.18-10.511M12.997 123.067c2.39-2.07 5.65-4.703 5.65-4.703-.735-.65-1.757-1.667-1.757-1.667l-1.79 1.31-3.966-3.62c-.99.992-2.473 3.047-3.876 4.86 0 0-1.688.648-2.532.771-.844.122-.498 10.015-.407 14.198.092 4.183.187 7.118.944 7.277 1.408.298 1.73-3.978 3.316-8.816 1.27-3.869 4.418-9.61 4.418-9.61"/>
        <path fill="#E8C012" d="M13.84 77.178c-1.661-2.425 1.305-10.925 3.57-14.28l10.465.343S49.772 75.942 49.13 84.934c-.369 5.16-9.646 19.951-9.646 19.951s-6.818-1.659-10.688-5.713c0 0 2.211-7.923 3.317-11.424 0 0-14.862-5.59-18.273-10.57"/>
        <path fill="#161B6C" d="M25.374 19.75c-.809.46-.473 4.36 1.051 5.47 1.318.96 2.514.466 2.514.466s-.059 6.07-3.148 8.956c-3.089 2.887-5.325 3.2-5.325 3.2s-10-.969-12.835-10.842c0 0 4.493 1.64 6.874 2.124 2.758.563 6.367-2.739 7.302-3.042 1.145-.37 2.026-.708 2.026-.708s-.919-3.076-.12-4.357c.33-.528 1.661-1.268 1.661-1.268M29.975 20.132c.571.652.6 3.183.6 3.183l.866 1.245s-.216-.825.966-2.379c1.038-1.365 2.3-2.279 2.75-3.496.262-.707-.986-2.877-.922-3.47.112-1.049 4.672-1.26 5.784-2.346.68-.662 1.41-1.919 1.654-2.358a.154.154 0 0 0-.077-.222c-.42-.172-1.595-.386-3.225-1.444 0 0 .554 1.35-.01 1.565-.566.215-5.723-.392-7.02-.203-1.298.19-.37 5.551-.455 6.66-.046.601-.91 3.265-.91 3.265"/>
        <path fill="#BE9200" d="M42.954 86.177C41.918 83.692 21.186 75.43 19.62 73.344c-.5-.667 8.254-10.103 8.254-10.103l.339-2.033-11.216-.501.412 2.192c-2.265 3.354-5.231 11.855-3.57 14.279 3.41 4.98 18.273 10.57 18.273 10.57-1.105 3.5-3.317 11.425-3.317 11.425 3.87 4.053 10.688 5.712 10.688 5.712s5.97-12.708 3.47-18.708"/>
        <path fill="#BCBEC0" d="M26.898 37.842s.394 8.195-8.388 14.74c0 0 .402-4.43.779-5.872l7.609-8.868z"/>
        <g transform="translate(0 35.743)">
            <mask id="d" fill="#fff">
                <use xlink:href="#c"/>
            </mask>
            <path fill="#F5C9B3" d="M2.53 32.04S4.918 18.386 9.16 13.4C15.529 5.917 23.983-1.73 26.505.776c1.072 1.066.024 4.257-3.998 8.438-2.468 2.565-7.414 5.826-9.915 8.14 0 0-5.971 12.938-7.58 16.835 0 0 1.436 3.05 1.268 3.883-.165.833-1.598 1.546-1.598 1.546s-.099 1.255-.405 1.523c-.271.237-.948.34-1.218.068-.373-.372-.813-1.117-.813-1.117S.726 39.086.28 38.536c-.71-.88.075-3.109.677-4.163.677-1.184 1.572-2.334 1.572-2.334" mask="url(#d)"/>
        </g>
    </g>
</svg>
