<svg xmlns="http://www.w3.org/2000/svg" xmlns:xlink="http://www.w3.org/1999/xlink" width="49" height="139" viewBox="0 0 49 139">
    <defs>
        <path id="a" d="M.73.471h14.943v14.07H.731z"/>
    </defs>
    <g fill="none" fill-rule="evenodd">
        <path fill="#E6A17B" d="M30.405 76.077s.627 3.366.627 4.165c0 .798-.57 2.795-.57 2.795l-2.453-6.96h2.396z"/>
        <path fill="#F5C9B3" d="M29.563 37.812s.68 1.234.328 3.97c-.596 4.618-1.095 12.373-1.075 14.525 0 0 1.397 13.425 2.068 16.478.336 1.526 1.35 4.89 1.43 6.59.045.959-.468 3.393-.842 3.275-.51-.16-.444-2.075-.514-3.064-.047-.655-.258-1.263-.553-1.854-.78-1.56-1.683-.903-2.563-.305-.88.598-2.806 1.206-2.783.722.022-.483 3.512-5.08 3.417-5.553-.313-1.564-4.027-13.061-4.183-14.153-.523-3.662.578-16.982 2.142-21.048l3.128.417zM23.876 51.88l-.683 4.119-9.366-1.421-.053-3.862zM37.035 134.866c-3.756-7.957-10.197-26.44-10.197-26.44l6.892-1.814 5.668 27.562-2.363.692z"/>
        <path fill="#9F7215" d="M25.583 109.762s2.234 2.494 2.805 2.91c0 0 3.169.675 6.546-1.507 0 0-.208-2.39-.52-3.429l-8.831 2.026z"/>
        <path fill="#F5C9B3" d="M14.348 134.596c.291-.727-6.685-27.904-6.685-27.904l7.993.872s.693 17.298.872 21.509c.136 3.224.367 5.897.222 6.623l-2.402-1.1z"/>
        <path fill="#9F7215" d="M16.838 108.484s-.408 2.19-.913 3.572c0 0-.47.639-3.4.74-2.866.098-3.638-.606-3.638-.606s-1.104-2.192-1.784-3.838c-.079-.192 9.735.132 9.735.132"/>
        <path fill="#F1F2F2" d="M23.453 33.628l6.625 3.133s-4.296 13.597-4.461 14.447c-.208 1.066-.221 2.436-.221 2.436s-3.532-1.342-6.972-1.51c-2.975-.145-6.33-.25-6.33-.25s.311-3.349.178-4.322c-.338-2.479-2.612-11.229-2.612-11.229s4.597-2.57 6.084-2.976c1.488-.405 7.709.271 7.709.271"/>
        <path fill="#202693" d="M16.491 4.215s-.245-3.142-.698-3.526c-1.09-.922-4.44-.999-6.143.263C7.947 2.215 7.204 4.075 7.1 5.611c-.095 1.385 1.751 2.348 3.2 2.746-.469-.043-1.15-.061-1.622.109-.393.143-.472.728-.472.728s1.35-.549 2.605-.585l5.68-4.394z"/>
        <path fill="#161B6C" d="M9.65.952C7.947 2.214 7.204 4.075 7.1 5.612c-.095 1.384 1.751 2.347 3.198 2.744-.467-.042-1.148-.06-1.62.11-.393.142-.472.728-.472.728s1.35-.55 2.605-.586l5.68-4.393s-1.504-.534-3.723 1.064c-1.172.844-2.212 1.474-2.086.797.108-.576.961-1.617.961-1.617s-.772.133-2.109 1.383C8.456 6.85 8.066 5.25 8.937 3.868 10.027 2.14 9.65.952 9.65.952"/>
        <path fill="#F4D600" d="M10.68 9.47s2.066-1.8 4.702-3.39c1.685-1.014 2.641-1.707 2.641-1.707s-.296-.27-.968-.511c-.523-.19-2.14.779-2.423.942-2.778 1.588-3.979 3.906-4.046 4.106-.066.2.095.56.095.56"/>
        <path fill="#202693" d="M30.384 13.774s.467-.767.679-1.65c.212-.882.097-1.908-.366-2.097-.263-.107-3.387-1.13-4.905-3.035-1.517-1.906-5.858-3.952-10.023-2.153-4.164 1.8-6.59 6.82-6.712 7.3-.281 1.105.657 4.287.657 4.745 0 .459-2.127 1.848-5.485 2.707 0 0-.438 3.304 2.28 7.499 2.154 3.327 5.873 4.853 6.86 5.489.989.635 1.825 2.14 1.825 2.705 0 0 1.15-1.117 1.86-3.046 1.018-2.761-.128-8.858-.128-8.858l13.458-9.606z"/>
        <path fill="#161B6C" d="M30.384 13.774s.467-.767.679-1.65c.212-.882.097-1.908-.366-2.097-.263-.107-3.387-1.13-4.905-3.035 0 0 .7 1.057.388 1.057-.292 0-2.135-1.094-3.62-1.536-1.76-.525-5.787-.202-5.88 1.512-.068 1.258-.105 2.364-.34 2.414-.783.167-2.496.205-3.104 1.08-.744 1.068 1.942 4.367 2.359 6.127.216.91.09 1.6.015 2.984s1.609 2.357 2.095 2.506c.487.15 12.679-9.362 12.679-9.362"/>
        <path fill="#202693" d="M24.295 34.321s1.213-1.379 3.75-3.253c2.681-1.982 4.742-1.103 6.011-.828 0 0 1.115-4.839.417-6.75-.599-1.642-3.18-3.636-3.59-4.545-.409-.909-.306-3.554-.409-4.999l-9.679 13.451s-.044 5.424 3.5 6.924"/>
        <path fill="#161B6C" d="M24.295 34.321s1.213-1.379 3.75-3.253c2.681-1.982 4.742-1.103 6.011-.828 0 0 .041-1.048-.274-1.483-.815-1.13-3.15-1.319-3.602-1.847-.312-.364-.49-1.808-.603-3.05-.099-1.087-1.618-4.205-2.929-4.596l-5.853 8.133s-.044 5.424 3.5 6.924"/>
        <path fill="#F5C9B3" d="M15.95 34.354s1.128-1.31.91-3.896c-.218-2.584-.52-5.17-.52-5.17l5.58 1.75s-.073 2.584.146 3.603c.219 1.02 1.346 2.872 2.742 3.63 0 0-1.896 1.75-3.529 1.75-2.645.001-5.329-1.667-5.329-1.667"/>
        <path fill="#161B24" d="M20.412 31.342a4.97 4.97 0 0 0 1.719-.468 2.064 2.064 0 0 1-.065-.234c-.074-.346-.114-.874-.136-1.42-.369.121-.88.231-1.568.27-1.815.102-3.066-.215-3.624-.4.042.446.084.907.123 1.368.015.184.023.36.026.53.844.321 2.364.458 3.525.354"/>
        <path fill="#E6A17B" d="M21.92 27.037l-5.58-1.75s.083.71.193 1.756c2.354 1.74 5.009 2.52 5.399 2.214-.044-1.07-.011-2.22-.011-2.22"/>
        <path fill="#F5C9B3" d="M16.929 11.964c-.051.014-.06.082-.015.111 1.95 1.252 2.266 3.014 2.202 3.565-.135 1.151-1.886 3.38-1.993 4.265-.13 1.087.036 2.318.036 2.318s-.674-.578-.819-.9c-.271-.603-.264-2.974-.793-3.965-.528-.992-4.489-.95-4.689.278-.4 2.455 1.197 4.656 2.31 4.81 1.031.143 1.618-.502 1.618-.502s.205 2.541 1.437 3.345c2.68 1.751 7.518 2.972 9.039 2.642 1.52-.33 4.266-3.092 4.954-5.155.242-.727-.325-1.393-.556-1.869a.669.669 0 0 1-.02-.535c.229-.578.742-2.091.975-4.534.055-.588.181-2.416-.941-3.693-3.035-3.459-7.839-3.764-9.599-3.177-1.498.499-1.319 2.229-1.246 2.907a.064.064 0 0 1-.079.069 4.02 4.02 0 0 0-.916-.091c-.435 0-.744.066-.905.111"/>
        <path fill="#E6A17B" d="M12.042 18.18c-.052-.017-.043-.09.011-.1.447-.075 1.416-.165 1.952.02.522.182.597 1.259.544 1.575-.049.29-.827-.063-.79.367.027.297.506.587.68.682a.04.04 0 0 1 0 .07c-.244.143-1.163.614-1.586-.122-.248-.43.19-1.086.558-1.717.113-.194-.684-.548-1.369-.775M25.156 21.577s.735.326.956.236c.626-.254 1.193-.548 1.38-.257.136.21-.158.606-.93.538-.437-.038-1.51-.372-1.406-.517M28.16 23.45a.64.64 0 0 1-.311.238c-.06.023-.122.043-.186.056-.03.008-.064.012-.096.017a2.996 2.996 0 0 1-.095.01c-.242.019-.47.014-.696.01l-.67-.015a7.284 7.284 0 0 0-.663.022c-.21.017-.454.05-.693.056a3.374 3.374 0 0 1-.727-.05 1.94 1.94 0 0 1-.361-.106 1.023 1.023 0 0 1-.334-.224.983.983 0 0 1-.168-.343 2.08 2.08 0 0 1-.078-.346.028.028 0 0 1 .023-.031.028.028 0 0 1 .029.015c.05.103.107.204.165.299a.971.971 0 0 0 .192.24c.027.02.079.046.122.062.047.017.095.03.143.044.1.022.204.034.311.037.213.008.431-.01.65-.037.22-.026.43-.072.675-.105.238-.032.477-.046.715-.046.238-.003.474.012.706.042.232.028.46.075.677.12.054.01.104.02.154.027.052.006.104.009.157.01a.778.778 0 0 0 .307-.045l.01-.005a.034.034 0 0 1 .044.018.034.034 0 0 1-.002.03M24.796 24.847c.204-.02.4-.027.595-.033l.572-.018c.188-.004.373-.019.562-.013.19.007.378.006.597.052h.004c.033.008.054.04.047.074a.06.06 0 0 1-.018.033 1.12 1.12 0 0 1-.27.188 1.775 1.775 0 0 1-.147.066 2.047 2.047 0 0 1-.778.107 2.81 2.81 0 0 1-.62-.095 1.98 1.98 0 0 1-.575-.254.058.058 0 0 1-.016-.08.06.06 0 0 1 .043-.027h.004z"/>
        <path fill="#202693" d="M29.89 15.395c.299.048.615.358.71.595.055.134.104.269.104.269s-.413-.335-.992-.313a5.825 5.825 0 0 0-1.718.325.285.285 0 0 1-.279-.047c-.177-.142-.426-.388-.472-.618 0 0 1.609-.376 2.647-.211"/>
        <path fill="#161B6C" d="M10.253 29.257c-.344.163-1.52.165-1.89.016 1.998 1.855 4.267 2.83 5.007 3.305.987.636 1.823 2.14 1.823 2.705 0 0 .497-.481 1.038-1.358.318-.577.776-1.735.63-3.466a186.807 186.807 0 0 0-.511-5.088 5.51 5.51 0 0 1-.127-.082c-1.232-.804-1.436-3.344-1.436-3.344s-.587.644-1.618.501c-1.024-.142-2.456-2.015-2.368-4.225-.53.126-.934.708-.77 2.157.242 2.126 1.45 3.447 2.394 3.943.514.271 1.022.206 1.492-.052 0 0-1.242.737-1.788 1.683-.334.58-1.101 2.938-1.876 3.305"/>
        <path fill="#202693" d="M24.775 15.38s-.512.555-.803.597c-.165.023-1.934-.707-2.69-.732-.69-.021-1.935.05-1.935.05s.889-.472 2.069-.582c1.049-.1 3.359.667 3.359.667"/>
        <path fill="#E6A17B" d="M27.683 16.628c-.123.347-.261.68-.392 1.015-.133.333-.265.663-.38.995-.112.336-.215.652-.215.983-.003.328.073.669.266.986-.325-.194-.535-.57-.593-.96-.02-.1-.02-.198-.023-.298.008-.098.008-.2.029-.295.01-.048.017-.098.027-.144l.035-.138c.023-.092.056-.18.084-.27a5.78 5.78 0 0 1 .473-1.005c.19-.315.396-.62.65-.893.01-.01.024-.01.033-.001a.024.024 0 0 1 .006.025"/>
        <path fill="#FFF" d="M24.075 19.744s.32-1.158 0-2.124c-.322-.964-2.156-1.608-3.604-.707-1.447.9-1.32 2.445-1.32 2.445s.645 1.544 2.704 1.609c2.059.064 2.22-1.223 2.22-1.223"/>
        <path fill="#161B24" d="M21.404 17.846c-.412 1.13.194 2.343 1.416 2.284 1.224-.06 1.396-1.384 1.396-1.384a3.676 3.676 0 0 0-.028-.614 2.76 2.76 0 0 0-.114-.512 1.514 1.514 0 0 0-.993-.925c-.555-.125-1.363.288-1.677 1.15"/>
        <path fill="#161B24" d="M24.063 19.74c.17-.731.158-1.554-.149-2.2-.352-.61-1.144-.88-1.846-.88a2.697 2.697 0 0 0-1.913.796 2.52 2.52 0 0 0-.706 1.872l.001.005-.022-.09c.066.198.205.439.36.633.16.198.345.384.562.532.43.303.956.487 1.505.555.001 0 .003.002.002.004 0 .002 0 .003-.003.003a3.477 3.477 0 0 1-1.656-.3 3.042 3.042 0 0 1-.736-.483 2.694 2.694 0 0 1-.586-.714.14.14 0 0 1-.02-.073l-.002-.017v-.017a3.043 3.043 0 0 1 .972-2.252 3.111 3.111 0 0 1 2.252-.805c.79.049 1.646.369 2.043 1.132.157.388.164.783.142 1.169a5.367 5.367 0 0 1-.178 1.137c0 .006-.008.01-.014.008-.006-.001-.009-.008-.008-.014"/>
        <path fill="#FFF" d="M27.71 19.914s-.128-1.158.644-2.188c.548-.731 1.576-.611 1.705.836 0 0-.045 1.358-.805 1.738-1.093.547-1.544-.386-1.544-.386"/>
        <path fill="#161B24" d="M28.964 19.85c.676.042.966-.584 1.051-.954.033-.171.027-.283.027-.283.044-1.194-.657-1.484-1.23-1.173-.356.23-.599.769-.62 1.304-.024.557.26 1.075.772 1.106"/>
        <path fill="#161B24" d="M27.708 19.914a3.373 3.373 0 0 1 .158-1.383c.161-.436.354-.892.765-1.195.202-.141.456-.243.725-.207.27.032.504.213.636.43.278.47.144.977.047 1.422l.001-.002c-.046.259-.072.535-.219.767-.137.23-.32.445-.564.559-.003 0-.007 0-.007-.003a.006.006 0 0 1 .001-.007 1.75 1.75 0 0 0 .477-.6c.097-.231.236-.462.266-.721v-.003c.078-.447 0-.946-.198-1.286-.206-.387-.696-.433-1.06-.191-.366.228-.6.659-.779 1.07-.17.423-.26.887-.246 1.35h-.003z"/>
        <path fill="#F5D7C7" d="M14.787 21.945s-.019-.428-.019-.62c0 0-.19.616-.415.93 0 0 .247-.118.434-.31"/>
        <path fill="#E6A17B" d="M29.674 12.145c-3.035-3.46-7.84-3.763-9.6-3.176-1.496.499-1.318 2.229-1.244 2.906a.064.064 0 0 1-.08.069 4.093 4.093 0 0 0-.916-.091c-.434 0-.744.066-.905.11-.05.015-.06.083-.015.112 1.95 1.252 2.266 3.014 2.202 3.565 0 0-.047-1.588-.283-2.663-.011-.05.58.024 1.403-.097.332-.05.437-.59.525-1.172.149-.977 1.025-1.416 3.249-1.455 3.083-.053 5.664 1.892 5.664 1.892"/>
        <path fill="#4B65FF" d="M23.613 55.86l-10.102-1.313v2.215l9.683 1.304z"/>
        <path fill="#E8C012" d="M13.512 56.762s-3.378 4.586-5.413 8.219c-2.034 3.634-4.505 38.223-4.36 41.42 0 0 1.744 2.616 8.429 3.197 0 0 4.215.123 5.814-2.034l-1.453-32.7 1.598.58 5.087 33.428s5.087 2.907 9.156 1.308c4.069-1.6 5.522-6.104 5.522-6.104l-14.698-46.01-9.682-1.304z"/>
        <path fill="#BE9200" d="M22.033 77.408c-1.152-.943-3.906-1.963-3.906-1.963l5.086 33.426s5.087 2.907 9.156 1.308a8.038 8.038 0 0 0 1.496-.78c-2.228-6.44-10.83-31.172-11.832-31.99M11.568 59.509c1.1-1.601 1.943-2.747 1.943-2.747v-2.215l10.102 1.314-.419 2.205 4.923 15.413s-4.342-7.533-5.505-8.695c-.436-.436-2.74-1.565-4.668-2.347-4.102-1.667-7.063-1.927-6.376-2.928"/>
        <path fill="#21212E" d="M13.325 132.997c.082-.203-1.948-6.625-1.948-6.625s1.896-.084 2.936 0l.236 1.797 2.123-.023c.206 4.381.652 7.616.7 9.044 0 0 .055.998-.762 1.096-4.868.581-10.084.773-10.941.047-1.196-1.013 2.34-2.044 4.53-3.04 2.213-1.005 3.126-2.296 3.126-2.296"/>
        <g transform="translate(33 123.804)">
            <mask id="b" fill="#fff">
                <use xlink:href="#a"/>
            </mask>
            <path fill="#21212E" d="M3.489 14.504a.298.298 0 0 1-.29-.209 6.282 6.282 0 0 1-.218-1.3c-.072-.898-.431-3.88-.431-3.88C2.155 7.93 1.472 6.96.73 4.91l1.828-.646L1.48 1.44 5.16.471l1.218 6.906s4.239 3.04 8.679 5.545c.22.124.617.576.617.9 0 .61-.72.718-.72.718L3.49 14.504z" mask="url(#b)"/>
        </g>
        <path fill="#BE9200" d="M8.099 64.981c-2.035 3.633-4.505 38.223-4.36 41.42 0 0 1.744 2.616 8.429 3.197 0 0-1.15-28.859-1.528-32.454-.379-3.595-2.541-12.163-2.541-12.163"/>
        <path fill="#BCBEC0" d="M21.363 45.016c1.541.462 2.046 1.31 2.046 1.31s-6.794-.819-7.612-.9c0 0 3.11-1.147 5.566-.41"/>
        <path fill="#F5C9B3" d="M9.803 36.964c-3.249 3.686-9.895 11.5-9.802 13.1.095 1.651 7.1 10.57 7.714 11.472.36.529.96.875 1.513.87.554-.004 1.981-.516 2.387-.328.406.189.926 1.376 1.418 1.692.492.315.763-.517.763-.517l.45.528c.452.529.92.398.85-.389-.07-.787-1.135-2.016-1.135-2.016 1.066.205 1.238.862 1.878.985.64.123.078-.979.078-.979s.43-.413-1.125-1.579c-.722-.541-1.47-.952-2.202-1.155-.65-.181-3.214.397-3.214.397-1.05-.865-4.585-9.477-4.585-9.477.483-.791 6.344-7.329 6.344-7.329l-1.332-5.275z"/>
    </g>
</svg>
