<svg xmlns="http://www.w3.org/2000/svg" xmlns:xlink="http://www.w3.org/1999/xlink" width="64" height="139" viewBox="0 0 64 139">
    <defs>
        <path id="a" d="M.354.51h19.485V13.77H.354z"/>
        <path id="c" d="M0 .791h15.225V18H0z"/>
    </defs>
    <g fill="none" fill-rule="evenodd">
        <path fill="#F5C9B3" d="M47.505 113.375l2.185 17.462-3.945.751-5.357-17.03z"/>
        <path fill="#9F7215" d="M47.842 109.229l-9.523 1.733 2.069 3.597s3.36-.014 7.117-1.184l.337-4.146z"/>
        <g transform="translate(44 125.017)">
            <mask id="b" fill="#fff">
                <use xlink:href="#a"/>
            </mask>
            <path fill="#21212E" d="M.354 3.131l5.216-.618L5.348.728S7.247.42 7.947.535c0 0 .062 8.013.175 8.53.113.513 10.826-2.017 11.675-.777.399.583-2.012 1.607-6.57 2.827-4.957 1.327-9.154 2.954-9.696 2.61 0 0-1.801-5.96-3.177-10.594" mask="url(#b)"/>
        </g>
        <path fill="#202693" d="M18.164 4.724S16.717 1.333 15.968.55c-.98-1.023-5.06-.78-7.141 2.15-2.321 3.265-1.455 6.258-.55 6.802 1.479.887 4.884 1.128 4.884 1.128l5.003-5.904z"/>
        <path fill="#161B6C" d="M18.164 4.724l-5.003 5.904s-3.405-.24-4.883-1.128c-.906-.543-1.772-3.537.549-6.802 0 0-.48 1.616-.081 2.651.398 1.036 2.944-.355 4.778-.477 1.195-.08 4.64-.148 4.64-.148"/>
        <path fill="#F5C9B3" d="M17.81 112.653L7.222 127.171l-3.434-2.763 8.117-15.9z"/>
        <path fill="#9F7215" d="M20.957 109.932l-8.006-5.439-1.046 4.015s2.406 2.345 5.905 4.145l3.147-2.721z"/>
        <path fill="#BE9200" d="M39.245 80.344s-3.59 14.897-4.627 16.447c-1.038 1.551-10.502 12.167-13.612 14.334 0 0-5.168-1.962-9.65-6.128 0 0 5.972-13.043 6.633-17.183.328-2.057 1.323-15.559 2.079-19.896l19.177 12.426z"/>
        <path fill="#9F7215" d="M18.443 83.389c.258-2.942.661-7.732 1.167-12.078l15.008 25.48s-1.662 2.178-3.56 4.217c0 0-7.156-9.613-8.293-11.356-1.13-1.734-4.322-6.263-4.322-6.263"/>
        <g transform="translate(0 121.017)">
            <mask id="d" fill="#fff">
                <use xlink:href="#c"/>
            </mask>
            <path fill="#21212E" d="M4.736.791l3.631 3.588 2.016-1.815s1.683 2.087 1.816 2.42c0 0-4.234 2.723-4.941 3.328-.452.388 1.488 5.624 2.154 6.356.667.733 3.566 1.092 4.916 1.665 1.572.668.735 1.704.068 1.666-.267-.015-7.049 0-7.049 0S-.24 7.784.008 6.986C.272 6.12 4.736.791 4.736.791" mask="url(#d)"/>
        </g>
        <path fill="#E6A17B" d="M54.153 77.245s.798 2.553.273 2.578c-.523.025-1.327-1.385-1.327-1.385s.155 1.428-.33 1.155c-.485-.273-2.808-4.769-3.408-5.745-.601-.975.708-2.282 1.951-1.2s2.841 4.597 2.841 4.597"/>
        <path fill="#F5C9B3" d="M35.71 44.115s4.087 10.652 6.014 14.438c0 0 6.549 7.366 8.72 10.061 2.17 2.695 5.995 9.881 5.949 10.838-.047.957-3.333-3.47-4.605-4.922-1.273-1.453-1.494-.84-2.072.187-.577 1.027-2.187 2.58-2.402 2.09-.217-.49.955-5.853.884-6.383-.07-.532-9.53-8.183-10.4-9.04-.87-.858-6.648-10.249-7.302-12.582l5.214-4.687z"/>
        <path fill="#F5C9B3" d="M29.653 26.297s-.579 3.76 1.446 7.233c2.026 3.472 3.906 6.799 4.196 8.39.289 1.59-2.569 21.868-2.569 21.868l-8.408-.415s.399-27.955.561-32.013c.145-3.616 1.649-6.333 1.649-6.333l3.125 1.27z"/>
        <path fill="#F1F2F2" d="M23.085 56.271c0-4.332-.207-16.195-.01-17.818.222-1.833 1.222-4.278 1.222-4.278.59 0 4.871 2.837 6.39 2.5 1.517-.337 1.776-1.555 1.776-1.555 3.333 4.443 5.445 7.221 5.445 8 0 2.006-2.095 7.324-3.016 13.765 0 0-5.595-.704-7.469-.814-1.277-.075-4.338.2-4.338.2"/>
        <path fill="#E8C012" d="M38.264 112.802L32.591 97.03c-2.387-3.955-6.06-9.167-11.192-17.467-1.498-2.42-3.198-8.31-2.36-10.71 0 0 2.185-4.996 4.411-6.989l10.256.716s12.111 17.153 14.485 26.65c1.014 4.053.34 21.705.34 21.705s-5.47 1.561-10.267 1.867"/>
        <path fill="#E6A17B" d="M25.361 28.15c.489-1.899 1.167-3.123 1.167-3.123l3.125 1.27s-.226 1.47.099 3.418c0 0-.298.888-1.918.14-1.785-.823-2.473-1.705-2.473-1.705"/>
        <path fill="#F5C9B3" d="M34.787 7.658s5.17 3.44 5.125 7.31c-.02 1.674-.034 4.525-.034 4.525s1.106.95 1.886 1.314c0 0 .25 1.184-1.725 1.748 0 0-.293 4.27-.772 4.99-.48.719-5.772 1.05-8.293.184-1.474-.507-4.54-3.083-4.54-3.083s-6.303.685-5.754-6.517c.599-7.872 8.19-10.911 14.107-10.471"/>
        <path fill="#E6A17B" d="M29.752 13.511c2.448 1.993 2.847 1.44 2.847 1.44s-.375-1.034 0-1.588c.376-.553 5.03-2.14 5.603-2.529-1.512-1.879-3.415-3.177-3.415-3.177-2.575-.19-5.464.278-7.959 1.515.541 1.731 1.834 3.452 2.924 4.34"/>
        <path fill="#F4D600" d="M12.309 11.736s1.253-1.757 4.128-4.718c1.709-1.761 3.01-3.14 3.01-3.14s-.408-.26-1.258-.41c-.66-.116-2.382 1.368-2.686 1.619-2.975 2.459-3.635 5.238-3.656 5.492-.038.452.462 1.157.462 1.157"/>
        <path fill="#FFF" d="M37.689 19.794s.09-3.525-.455-4.844c0 0-1.06.596-1.592 2.26-.51 1.59-.42 2.37-.42 2.37s1.44.36 2.467.214"/>
        <path fill="#000" d="M29.713 29.443c-.71-.045-2.275-.267-4.372-1.214a16.034 16.034 0 0 0-.369 2c.766.341 2.685 1.071 5.182 1.148a12.133 12.133 0 0 1-.44-1.934"/>
        <path fill="#161B24" d="M37.234 14.95c-.62.633-1.004 1.39-1.225 2.18-.108.398-.219.817-.296 1.224-.089.4-.16.837-.195 1.192l-.224-.256c.755.264 1.565.494 2.393.49.008 0 .015.005.015.013.001.008-.005.014-.01.015-.827.194-1.685.155-2.543.061a.244.244 0 0 1-.215-.204l-.009-.05v-.005c-.08-.518-.009-.951.072-1.405.106-.444.228-.868.41-1.293.195-.418.418-.83.737-1.166.305-.34.67-.636 1.09-.796"/>
        <path fill="#161B24" d="M37.234 14.95c.38.92.489 2.625.463 4.543 0 0-.356-.04-.717-.887-.34-.797-.135-3.38-.135-3.38l.389-.276z"/>
        <path fill="#E6A17B" d="M39.93 23.807s-.044.507-.08.811c0 0-3.513-.026-3.887-.467-.28-.329-.75-1.321-.75-1.321s.446.326 1.03.734c.345.24 3.686.243 3.686.243M24.529 19.407c-.055-.011-.055-.083-.003-.1.433-.132 1.38-.344 1.934-.23.54.114.752 1.17.74 1.489-.011.293-.828.044-.735.465.064.29.575.516.758.588a.04.04 0 0 1 .01.069c-.224.172-1.073.756-1.585.08-.3-.393.05-1.097.334-1.768.087-.207-.747-.456-1.453-.593"/>
        <path fill="#202693" d="M38.565 13.506s-.308.83-.506.94c-.112.06-1.619-.207-2.173-.05-.506.145-1.406.372-1.406.372s.533-.587 1.312-1.046c.652-.384 2.773-.216 2.773-.216M30.045 22.004l-1.073-1.073s-.474-2.486-1.15-3.028c-1.272-1.016-3.882-.162-4.597.434-.715.596.302 4.376 2 5.2 1.465.713 2.555.017 2.555.017s1.011 5.984-1.52 9.37c-2.533 3.386-4.679 4.088-4.679 4.088S11.567 37.82 7.037 28.6c0 0 5.722-3.377 7.51-4.927 1.79-1.55-3.814-7.749-3.338-9.775.477-2.027 4.411-10.73 12.041-11.326 7.63-.596 8.795 1.878 10.848 2.742 1.791.754 2.985.758 3.43.853a.154.154 0 0 1 .114.205c-.164.476-.66 1.841-1.213 2.613-.904 1.265-5.355 2.276-5.28 3.328.042.595 1.652 2.511 1.52 3.254-.23 1.277-1.31 2.4-2.093 3.926-.89 1.738-.53 2.511-.53 2.511"/>
        <path fill="#161B6C" d="M23.225 18.338c-.715.596.302 4.375 2 5.2 1.465.713 2.555.016 2.555.016s1.01 5.985-1.52 9.37c-2.534 3.386-4.68 4.088-4.68 4.088S11.567 37.82 7.037 28.6c0 0 4.71.822 7.14.88 2.815.067 5.785-3.817 6.652-4.28 1.063-.567 1.87-1.055 1.87-1.055s-1.447-2.866-.886-4.267c.231-.58 1.412-1.541 1.412-1.541M27.822 17.904c.677.542 1.15 3.028 1.15 3.028l1.073 1.073s-.359-.774.531-2.512c.782-1.527 1.862-2.65 2.091-3.926.133-.742-1.476-2.66-1.519-3.253-.073-1.053 4.378-2.063 5.281-3.328.551-.772 1.048-2.138 1.212-2.613a.153.153 0 0 0-.113-.205c-.444-.095-1.639-.1-3.43-.853 0 0 .784 1.232.266 1.543-.52.31-5.702.622-6.946 1.036-1.244.415.614 5.53.726 6.635.06.6-.322 3.375-.322 3.375"/>
        <path fill="#BCBEC0" d="M22.995 44.407c.019 4.146.09 9.313.09 11.864 0 0 1.382-.124 2.676-.183 0 0 3.592-12.138 3.906-17.077.314-4.938-6.685 2.504-6.672 5.396"/>
        <path fill="#F5C9B3" d="M28.822 36.33c1.336.71 1.259 4.068-1.376 9.237-1.617 3.17-6.063 9.409-7.787 12.348 0 0-5.499 14.627-6.224 16.636 0 0 .246 2.162.284 4.71.026 1.738-.68 1.47-.929.777-.249-.694-.804-3.072-.804-3.072s-1.844 5.76-3.19 5.87c-.86.07.767-3.005 1.17-4.235 0 0-3.908 3.772-4.648 3.476-.741-.297 1.05-1.97 3.207-4.19 0 0-2.923 1.42-3.892.752-.799-.551 6.37-3.727 6.671-4.65 0 0 .984-11.961 3.925-18.863 3.852-9.036 10.453-20.462 13.593-18.795"/>
        <path fill="#BE9200" d="M19.038 68.851c-.837 2.401.864 8.291 2.36 10.712 5.132 8.3 8.807 13.512 11.193 17.466l5.674 15.773c4.778-.305 10.22-1.855 10.262-1.867-.538-4.956-1.728-13.845-3.495-15.76-2.482-2.688-21.346-20.8-20.88-22.3 0 0 1.692-4.035 3.437-5.892 3.846-4.09 6.117-4.403 6.117-4.403l.604-2.828-11.086-.69.226 2.802c-2.225 1.993-4.412 6.987-4.412 6.987"/>
    </g>
</svg>
