<svg xmlns="http://www.w3.org/2000/svg" xmlns:xlink="http://www.w3.org/1999/xlink" width="52" height="139" viewBox="0 0 52 139">
    <defs>
        <path id="a" d="M.903.649h30.62v46.28H.903z"/>
        <path id="c" d="M.778.287h10.825v10.628H.778z"/>
        <path id="e" d="M.599.52h18.339V13H.598z"/>
    </defs>
    <g fill="none" fill-rule="evenodd">
        <g transform="translate(20 35.713)">
            <mask id="b" fill="#fff">
                <use xlink:href="#a"/>
            </mask>
            <path fill="#F5C9B3" d="M30.887 43.107c-.58-1.043-1.916-2.873-1.762-3.016 0 0 .176.061 1.022.182.73.104 2.142-.253.589-1.03-2.428-1.218-3.814-2.283-3.814-2.283-1.26-1.726-12.372-16.496-12.372-16.496-1.472-3.072-4.152-10.25-5.874-13.363C5.866 2.024 3.128.081 1.792.791c-3.138 1.67 2.635 13.534 7.967 21.783 4.073 6.302 14.82 16.687 14.82 16.687s.683 1.734 1.108 3.53c.294 1.24.717 3.587 1.087 3.547.454-.049.429-3.874.429-3.874-.03.332 1.349 4.502 1.69 4.465.456-.05.344-1.399.179-2.14-.225-1.01-.382-2.077-.493-2.68 0 0 2.299 3.11 2.802 3.021.326-.056.064-1.019-.494-2.023" mask="url(#b)"/>
        </g>
        <path fill="#F5C9B3" d="M18.872 113.198L6.544 126.272l-3.06-3.173 10.05-14.755z"/>
        <path fill="#9F7215" d="M22.335 110.894l-7.26-6.401-1.54 3.852s2.091 2.629 5.336 4.853l3.464-2.304z"/>
        <path fill="#21212E" d="M7.889 138.623S.423 126.567.693 125.777c.294-.857 4.925-6.042 4.925-6.042l3.516 3.702 2.073-1.75s1.614 2.14 1.737 2.477c0 0-4.208 3.178-4.933 3.76-.465.373 1.31 6.625 1.86 8.148 0 0 1.309.406 2.442.901.939.41 1.02 1.59-.012 1.65-1.586.093-4.412 0-4.412 0"/>
        <path fill="#BE9200" d="M19.524 73.181c-.636 4.83 2.232 16.95 1.29 18.688-3.057 5.633-7.787 13.774-7.787 13.774 4.482 4.167 9.65 6.128 9.65 6.128 5.85-3.427 14.224-13.5 14.518-16.839.664-7.545-7.519-32.6-7.519-32.6l-10.152 10.85z"/>
        <path fill="#9F7215" d="M22.677 111.771s-5.167-1.96-9.649-6.128c0 0 4.73-8.142 7.785-13.774l1.864 19.902z"/>
        <g transform="translate(2 -.287)">
            <mask id="d" fill="#fff">
                <use xlink:href="#c"/>
            </mask>
            <path fill="#202693" d="M11.603 5.011S10.157 1.619 9.407.836c-.98-1.024-5.06-.78-7.141 2.149C-.055 6.25.81 9.243 1.716 9.787c1.48.887 4.884 1.128 4.884 1.128l5.003-5.904z" mask="url(#d)"/>
        </g>
        <path fill="#161B6C" d="M13.603 4.724L8.6 10.628S5.196 10.387 3.717 9.5c-.906-.544-1.772-3.537.549-6.802 0 0-.478 1.616-.08 2.651.397 1.036 2.943-.355 4.777-.477 1.195-.08 4.64-.148 4.64-.148"/>
        <path fill="#F5C9B3" d="M25.092 26.296s-.579 3.761 1.447 7.233c2.025 3.472 3.906 6.8 4.195 8.39.29 1.591-2.569 21.868-2.569 21.868l-8.408-.415s.4-27.955.562-32.013c.144-3.616 1.648-6.333 1.648-6.333l3.125 1.27z"/>
        <path fill="#F1F2F2" d="M18.525 56.27c0-4.331-.207-16.194-.01-17.817.222-1.833 1.222-4.278 1.222-4.278.59 0 4.87 2.837 6.389 2.5 1.517-.337 1.777-1.555 1.777-1.555 3.333 4.443 5.444 7.22 5.444 7.999 0 2.007-2.095 7.325-3.015 13.766 0 0-5.595-.704-7.47-.814-1.276-.075-4.337.2-4.337.2"/>
        <path fill="#E6A17B" d="M20.8 28.15c.49-1.9 1.167-3.123 1.167-3.123l3.125 1.269s-.226 1.47.1 3.419c0 0-.299.888-1.919.14-1.784-.823-2.473-1.705-2.473-1.705"/>
        <path fill="#F5C9B3" d="M30.227 7.657s5.17 3.44 5.125 7.31c-.021 1.674-.034 4.525-.034 4.525s1.105.951 1.885 1.314c0 0 .252 1.184-1.725 1.748 0 0-.293 4.27-.773 4.99-.478.72-5.77 1.05-8.291.184-1.475-.507-4.54-3.083-4.54-3.083s-6.303.685-5.755-6.517c.6-7.872 8.19-10.91 14.108-10.47"/>
        <path fill="#E6A17B" d="M25.191 13.51c2.448 1.994 2.848 1.44 2.848 1.44s-.376-1.033 0-1.587c.375-.553 5.028-2.141 5.602-2.53-1.512-1.878-3.415-3.176-3.415-3.176-2.574-.191-5.464.278-7.958 1.515.541 1.73 1.833 3.452 2.923 4.339"/>
        <path fill="#F4D600" d="M7.748 11.735s1.253-1.757 4.128-4.718c1.71-1.76 3.01-3.14 3.01-3.14s-.408-.26-1.258-.41c-.66-.116-2.382 1.368-2.686 1.62-2.976 2.458-3.635 5.237-3.656 5.491-.038.452.462 1.157.462 1.157"/>
        <path fill="#FFF" d="M33.128 19.794s.09-3.525-.455-4.844c0 0-1.058.596-1.592 2.259-.51 1.59-.42 2.37-.42 2.37s1.44.36 2.467.215"/>
        <path fill="#000" d="M25.152 29.443c-.71-.045-2.275-.267-4.37-1.214a15.847 15.847 0 0 0-.37 2c.765.34 2.684 1.07 5.181 1.148a12.243 12.243 0 0 1-.44-1.934"/>
        <path fill="#161B24" d="M32.673 14.95c-.62.632-1.003 1.39-1.225 2.18-.108.397-.219.817-.296 1.224-.089.4-.16.837-.194 1.191l-.225-.255c.755.263 1.565.493 2.393.49.008 0 .015.005.015.013.001.007-.005.013-.01.015-.827.193-1.685.155-2.542.061a.245.245 0 0 1-.216-.204l-.009-.05v-.006c-.08-.518-.009-.95.072-1.405.107-.444.228-.868.411-1.292.195-.419.418-.83.736-1.167.305-.34.67-.636 1.09-.795"/>
        <path fill="#161B24" d="M32.673 14.95c.38.92.49 2.624.463 4.542 0 0-.356-.039-.718-.887-.339-.796-.134-3.38-.134-3.38l.39-.275z"/>
        <path fill="#E6A17B" d="M35.369 23.807s-.043.507-.08.81c0 0-3.513-.025-3.886-.466-.28-.33-.75-1.321-.75-1.321s.446.326 1.03.734c.344.24 3.686.243 3.686.243M19.968 19.406c-.054-.01-.054-.083-.002-.099.434-.133 1.38-.345 1.934-.23.54.113.752 1.17.739 1.488-.011.293-.827.044-.734.465.063.29.575.516.758.588.029.011.034.05.01.07-.223.171-1.072.755-1.585.08-.3-.394.049-1.098.333-1.769.088-.207-.746-.456-1.453-.593"/>
        <path fill="#202693" d="M34.005 13.505s-.308.831-.506.94c-.112.061-1.62-.207-2.174-.049-.505.144-1.406.371-1.406.371s.534-.587 1.313-1.046c.652-.384 2.773-.216 2.773-.216M25.484 22.004l-1.073-1.073s-.473-2.486-1.15-3.028c-1.27-1.016-3.88-.162-4.597.434-.715.596.303 4.376 2 5.2 1.466.713 2.555.017 2.555.017s1.011 5.984-1.52 9.37c-2.533 3.386-4.679 4.088-4.679 4.088S7.006 37.819 2.476 28.6c0 0 5.722-3.377 7.51-4.927 1.79-1.55-3.814-7.75-3.337-9.775.476-2.027 4.41-10.73 12.04-11.326 7.63-.596 8.796 1.878 10.85 2.742 1.79.754 2.983.758 3.427.853a.153.153 0 0 1 .115.205c-.164.476-.66 1.84-1.212 2.613-.904 1.265-5.356 2.276-5.28 3.328.041.595 1.651 2.51 1.518 3.254-.229 1.277-1.31 2.399-2.092 3.926-.889 1.738-.53 2.51-.53 2.51"/>
        <path fill="#161B6C" d="M18.664 18.337c-.715.596.303 4.375 2 5.2 1.465.713 2.555.016 2.555.016s1.011 5.985-1.52 9.37c-2.534 3.386-4.679 4.088-4.679 4.088s-10.014.808-14.544-8.41c0 0 4.711.821 7.14.88 2.815.066 5.785-3.818 6.652-4.28 1.063-.568 1.87-1.056 1.87-1.056s-1.447-2.866-.886-4.267c.231-.579 1.412-1.54 1.412-1.54M23.261 17.903c.677.542 1.15 3.028 1.15 3.028l1.073 1.073s-.358-.774.531-2.512c.782-1.527 1.863-2.649 2.092-3.926.133-.742-1.477-2.659-1.519-3.253-.075-1.053 4.377-2.063 5.281-3.328.551-.772 1.048-2.138 1.212-2.613a.153.153 0 0 0-.114-.205c-.445-.095-1.638-.099-3.429-.853 0 0 .783 1.232.265 1.543-.519.311-5.702.622-6.946 1.036-1.244.415.614 5.53.725 6.635.061.601-.32 3.375-.32 3.375"/>
        <path fill="#F5C9B3" d="M26.698 113.734L25.275 131.3l-4.016.017-1.77-17.723z"/>
        <path fill="#9F7215" d="M27.874 109.72l-9.678-.039 1.292 3.913s3.292.603 7.21.14l1.176-4.015z"/>
        <g transform="translate(20 125.713)">
            <mask id="f" fill="#fff">
                <use xlink:href="#e"/>
            </mask>
            <path fill="#21212E" d="M.599 1.968l5.234.347L5.978.52s1.923.044 2.583.286c0 0-1.691 6.757-1.341 7.144 2.104 2.327 11.977 2.955 11.712 4.451-.125.698-2.68.622-7.774.565-5.13-.059-8.005.057-9.843-.055 0 0-.316-6.136-.718-10.942" mask="url(#f)"/>
        </g>
        <path fill="#E8C012" d="M17.738 110.802s-3.203-20.08-4.405-33.754c-.248-2.83.625-6.345 2.52-9.395 0 0 1.514-2.318 3.358-5.664l10.465.343s4.517 21.775 3.43 30.725c-.914 7.521-4.64 18.136-4.64 18.136s-6.05.62-10.728-.39"/>
        <path fill="#BE9200" d="M27.487 96.176c-5.2-12.122-10.361-22.777-8.64-24.292l4.073-3.743c3.082-2.834 6.757-5.809 6.757-5.809l.973-2.532-12.12-.527.682 2.716c-2.478 3.586-5.25 8.476-5.25 8.476-1.503 2.081-1.145 8.057-.9 10.888.712 8.222 4.676 29.45 4.676 29.45 4.677 1.01 10.727.39 10.727.39s.453-11.68-.978-15.017"/>
        <path fill="#BCBEC0" d="M18.424 44.407c.02 4.146.09 9.313.09 11.864 0 0 1.382-.124 2.676-.183 0 0 3.592-12.138 3.906-17.077.314-4.938-6.685 2.504-6.672 5.396"/>
        <path fill="#F5C9B3" d="M24.251 36.33c1.336.71 1.26 4.068-1.376 9.236-1.617 3.17-6.063 9.41-7.787 12.348 0 0-5.499 14.627-6.224 16.636 0 0 .246 2.163.284 4.712.026 1.737-.68 1.47-.929.775-.249-.694-.804-3.072-.804-3.072s-1.844 5.761-3.19 5.87c-.86.07.767-3.004 1.17-4.234 0 0-3.908 3.772-4.648 3.475-.74-.296 1.05-1.968 3.207-4.19 0 0-2.923 1.42-3.892.752-.799-.55 6.37-3.727 6.671-4.648 0 0 .984-11.962 3.925-18.864C14.51 46.09 21.111 34.663 24.251 36.33"/>
    </g>
</svg>
