<svg xmlns="http://www.w3.org/2000/svg" xmlns:xlink="http://www.w3.org/1999/xlink" width="64" height="139" viewBox="0 0 64 139">
    <defs>
        <path id="a" d="M.354.51h19.485V13.77H.354z"/>
        <path id="c" d="M0 .791h15.225V18H0z"/>
    </defs>
    <g fill="none" fill-rule="evenodd">
        <path fill="#E6A17B" d="M28.822 36.33c1.336.71 1.259 4.068-1.376 9.237-1.617 3.17-6.063 9.409-7.787 12.348 0 0-5.5 14.627-6.224 16.636 0 0 .246 2.162.284 4.71.026 1.738-.68 1.47-.93.777-.248-.694-.803-3.072-.803-3.072s-1.844 5.76-3.19 5.87c-.86.07.767-3.005 1.17-4.235 0 0-3.908 3.772-4.648 3.476-.741-.297 1.05-1.97 3.207-4.19 0 0-2.923 1.42-3.892.752-.8-.551 6.37-3.727 6.67-4.65 0 0 .985-11.961 3.926-18.863C19.08 46.09 25.682 34.664 28.822 36.33"/>
        <path fill="#F5C9B3" d="M47.505 113.375l2.185 17.462-3.945.751-5.357-17.03z"/>
        <path fill="#9F7215" d="M47.842 109.229l-9.523 1.733 2.069 3.597s3.36-.014 7.117-1.184l.337-4.146z"/>
        <g transform="translate(44 125.017)">
            <mask id="b" fill="#fff">
                <use xlink:href="#a"/>
            </mask>
            <path fill="#21212E" d="M.354 3.131l5.216-.618L5.348.728S7.247.42 7.947.535c0 0 .062 8.013.175 8.53.113.513 10.826-2.017 11.675-.777.399.583-2.012 1.607-6.57 2.827-4.957 1.327-9.154 2.954-9.696 2.61 0 0-1.801-5.96-3.177-10.594" mask="url(#b)"/>
        </g>
        <path fill="#E8C012" d="M38.265 112.802L32.59 97.03c-2.386-3.955-6.061-9.167-11.192-17.467-1.497-2.42-3.198-8.31-2.361-10.71 0 0 2.186-4.996 4.413-6.989l10.256.716s12.11 17.153 14.485 26.65c1.013 4.053.339 21.705.339 21.705s-5.47 1.561-10.266 1.867"/>
        <path fill="#BE9200" d="M39.93 95.59c.92-3.397-.696-16.004-3.8-29.437a156.044 156.044 0 0 0-2.424-3.573l-10.256-.716c-2.226 1.993-4.412 6.987-4.412 6.987-.838 2.401.863 8.291 2.361 10.712 5.131 8.3 8.805 13.512 11.192 17.466l2.42 6.73c2.135-1.974 4.096-5.135 4.918-8.17"/>
        <path fill="#202693" d="M18.164 4.724S16.718 1.333 15.968.55c-.98-1.023-5.06-.78-7.141 2.15-2.321 3.264-1.455 6.258-.55 6.802 1.479.886 4.884 1.128 4.884 1.128l5.003-5.904z"/>
        <path fill="#161B6C" d="M18.164 4.724L13.16 10.63S9.756 10.387 8.278 9.5c-.906-.544-1.772-3.537.549-6.802 0 0-.48 1.615-.08 2.65.397 1.037 2.943-.354 4.777-.477 1.195-.08 4.64-.147 4.64-.147"/>
        <path fill="#F5C9B3" d="M29.653 26.297s-.579 3.76 1.447 7.233c2.025 3.472 3.905 6.799 4.195 8.39.289 1.59-2.569 21.868-2.569 21.868l-8.408-.415s.399-27.955.562-32.013c.144-3.616 1.648-6.333 1.648-6.333l3.125 1.27z"/>
        <path fill="#F1F2F2" d="M23.085 56.271c0-4.332-.207-16.195-.01-17.818.222-1.833 1.222-4.278 1.222-4.278.59 0 4.871 2.837 6.39 2.5 1.517-.337 1.776-1.555 1.776-1.555 3.333 4.443 5.445 7.221 5.445 8 0 2.006-2.095 7.324-3.015 13.765 0 0-5.596-.704-7.47-.814-1.277-.075-4.338.2-4.338.2"/>
        <path fill="#E6A17B" d="M25.361 28.15c.489-1.899 1.167-3.123 1.167-3.123l3.125 1.27s-.226 1.47.099 3.418c0 0-.298.888-1.918.14-1.785-.823-2.473-1.705-2.473-1.705"/>
        <path fill="#F5C9B3" d="M34.787 7.658s5.17 3.44 5.125 7.31c-.02 1.674-.034 4.525-.034 4.525s1.106.95 1.886 1.314c0 0 .252 1.184-1.725 1.748 0 0-.293 4.27-.772 4.99-.48.719-5.772 1.05-8.293.184-1.474-.507-4.54-3.083-4.54-3.083s-6.303.685-5.754-6.517c.599-7.872 8.19-10.911 14.107-10.471"/>
        <path fill="#E6A17B" d="M29.752 13.511c2.448 1.993 2.847 1.44 2.847 1.44s-.375-1.034 0-1.588c.376-.553 5.03-2.14 5.603-2.529-1.512-1.879-3.415-3.177-3.415-3.177-2.575-.19-5.464.278-7.959 1.515.541 1.731 1.834 3.452 2.924 4.34"/>
        <path fill="#F4D600" d="M12.309 11.736s1.253-1.757 4.128-4.718c1.709-1.761 3.01-3.14 3.01-3.14s-.408-.26-1.257-.41c-.66-.116-2.383 1.368-2.687 1.619-2.975 2.459-3.635 5.238-3.656 5.492-.038.452.462 1.157.462 1.157"/>
        <path fill="#FFF" d="M37.689 19.794s.09-3.525-.455-4.844c0 0-1.06.596-1.592 2.26-.51 1.59-.42 2.37-.42 2.37s1.44.36 2.467.214"/>
        <path fill="#000" d="M29.713 29.443c-.71-.045-2.275-.267-4.372-1.214a16.034 16.034 0 0 0-.369 2c.766.341 2.685 1.071 5.182 1.148a12.133 12.133 0 0 1-.441-1.934"/>
        <path fill="#161B24" d="M37.234 14.95c-.62.633-1.004 1.39-1.225 2.18-.108.398-.219.818-.296 1.225-.089.398-.161.837-.195 1.19l-.224-.255c.755.264 1.565.494 2.393.49.008 0 .015.005.015.014.001.006-.005.012-.011.014-.826.194-1.684.155-2.542.061a.244.244 0 0 1-.215-.203l-.009-.052-.001-.005c-.08-.518-.008-.95.073-1.405.106-.444.228-.867.41-1.291.195-.42.418-.832.737-1.168.305-.34.67-.635 1.09-.794"/>
        <path fill="#161B24" d="M37.233 14.95c.38.92.49 2.625.464 4.543 0 0-.357-.04-.718-.887-.34-.797-.135-3.38-.135-3.38l.39-.276z"/>
        <path fill="#E6A17B" d="M39.93 23.807s-.043.507-.08.811c0 0-3.513-.026-3.887-.467-.28-.329-.75-1.321-.75-1.321s.446.326 1.03.734c.345.24 3.687.243 3.687.243M24.528 19.407c-.054-.011-.054-.083-.002-.1.433-.132 1.38-.344 1.934-.23.54.114.752 1.17.74 1.489-.012.293-.828.044-.735.465.063.29.574.516.757.588a.04.04 0 0 1 .011.069c-.224.172-1.072.756-1.585.08-.3-.393.05-1.097.333-1.768.087-.207-.746-.456-1.453-.593"/>
        <path fill="#202693" d="M38.566 13.506s-.31.83-.506.94c-.112.06-1.62-.207-2.174-.05-.506.145-1.406.372-1.406.372s.533-.587 1.313-1.046c.652-.384 2.773-.216 2.773-.216M30.045 22.004l-1.073-1.073s-.473-2.486-1.151-3.028c-1.271-1.016-3.88-.162-4.596.434-.715.596.302 4.376 1.999 5.2 1.466.713 2.556.017 2.556.017s1.011 5.984-1.521 9.37c-2.532 3.386-4.678 4.088-4.678 4.088S11.567 37.82 7.037 28.6c0 0 5.722-3.377 7.51-4.927 1.789-1.55-3.814-7.749-3.338-9.775.477-2.027 4.411-10.73 12.041-11.326 7.629-.596 8.795 1.878 10.848 2.742 1.791.754 2.985.758 3.429.853a.154.154 0 0 1 .115.205c-.164.476-.661 1.841-1.213 2.613-.904 1.265-5.355 2.276-5.28 3.328.042.595 1.652 2.511 1.519 3.254-.229 1.277-1.31 2.4-2.092 3.926-.89 1.738-.531 2.511-.531 2.511"/>
        <path fill="#161B6C" d="M23.225 18.338c-.715.596.302 4.375 2 5.2 1.465.713 2.555.016 2.555.016s1.01 5.985-1.52 9.37c-2.534 3.386-4.68 4.088-4.68 4.088S11.567 37.82 7.037 28.6c0 0 4.71.822 7.14.88 2.815.067 5.785-3.817 6.652-4.28 1.063-.567 1.87-1.055 1.87-1.055s-1.447-2.866-.886-4.267c.231-.58 1.412-1.541 1.412-1.541M27.821 17.904c.677.542 1.151 3.028 1.151 3.028l1.073 1.073s-.359-.774.531-2.512c.782-1.527 1.862-2.65 2.091-3.926.133-.742-1.476-2.66-1.519-3.253-.074-1.053 4.377-2.063 5.281-3.328.551-.772 1.048-2.138 1.212-2.613a.153.153 0 0 0-.114-.205c-.444-.095-1.638-.1-3.429-.853 0 0 .783 1.232.265 1.543-.519.31-5.702.622-6.946 1.036-1.244.415.614 5.53.726 6.635.06.6-.322 3.375-.322 3.375"/>
        <path fill="#F5C9B3" d="M17.81 112.653L7.222 127.171l-3.434-2.763 8.117-15.9z"/>
        <path fill="#9F7215" d="M20.957 109.932l-8.006-5.439-1.046 4.015s2.406 2.345 5.905 4.145l3.147-2.721z"/>
        <g transform="translate(0 121.017)">
            <mask id="d" fill="#fff">
                <use xlink:href="#c"/>
            </mask>
            <path fill="#21212E" d="M4.736.791l3.631 3.588 2.016-1.815s1.683 2.087 1.816 2.42c0 0-4.234 2.723-4.941 3.328-.452.388 1.488 5.624 2.154 6.356.667.733 3.566 1.092 4.916 1.665 1.572.668.735 1.704.068 1.666-.267-.015-7.049 0-7.049 0S-.24 7.784.008 6.986C.272 6.12 4.736.791 4.736.791" mask="url(#d)"/>
        </g>
        <path fill="#E8C012" d="M36.396 84.12c-.484-2.666-2.5-21.539-2.5-21.539l.625-2.823-11.08-.78.01 2.886c-2.579 2.846-4.617 7.331-4.635 7.586-.636 4.828-.516 16.41-.828 18.364-.66 4.14-6.633 17.183-6.633 17.183 4.483 4.166 9.65 6.127 9.65 6.127 3.11-2.165 12.391-12.922 13.613-14.332 3.29-3.799 1.778-12.672 1.778-12.672"/>
        <path fill="#BE9200" d="M28.52 103.675c-2.862 3.136-5.96 6.367-7.515 7.45 0 0-5.167-1.961-9.65-6.128 0 0 5.973-13.043 6.633-17.183.312-1.953.192-13.536.828-18.365.018-.253 2.035-4.675 4.634-7.585l-.01-2.885 11.08.78-.625 2.823s-7.55 8.14-9.846 13.45c0 0-2.134 5.31 0 15.498 2.135 10.187 4.471 12.145 4.471 12.145"/>
        <path fill="#BCBEC0" d="M25.463 37.713s.063 7.283 1.527 12.182c1.466 4.9 2.054 6.316 2.054 6.316s3.928.363 5.848.674l-9.429-19.172z"/>
        <path fill="#F5C9B3" d="M55.447 78.82c-.579-1.042-1.917-2.872-1.762-3.015 0 0 .175.06 1.022.182.73.104 2.142-.253.59-1.031-2.429-1.217-3.815-2.282-3.815-2.282-1.259-1.726-12.372-16.496-12.372-16.496-1.472-3.072-4.152-10.25-5.874-13.363-2.809-5.077-5.549-7.021-6.884-6.311-3.138 1.67 2.635 13.535 7.967 21.784C38.392 64.59 49.14 74.975 49.14 74.975s.682 1.734 1.106 3.529c.294 1.24.718 3.588 1.088 3.548.454-.05.43-3.874.43-3.874-.03.332 1.348 4.502 1.69 4.465.455-.05.343-1.4.178-2.14-.225-1.01-.382-2.077-.493-2.681 0 0 2.3 3.11 2.802 3.022.326-.056.064-1.02-.494-2.023"/>
    </g>
</svg>
