<svg xmlns="http://www.w3.org/2000/svg" xmlns:xlink="http://www.w3.org/1999/xlink" width="52" height="139" viewBox="0 0 52 139">
    <defs>
        <path id="a" d="M.769.287h10.824v10.628H.77z"/>
        <path id="c" d="M.588.52h18.34V13H.588z"/>
    </defs>
    <g fill="none" fill-rule="evenodd">
        <path fill="#E6A17B" d="M24.251 36.33c1.336.71 1.26 4.068-1.376 9.236-1.617 3.17-6.064 9.41-7.787 12.348 0 0-5.499 14.627-6.224 16.636 0 0 .246 2.163.284 4.712.026 1.737-.68 1.47-.929.775-.249-.694-.804-3.072-.804-3.072s-1.844 5.761-3.19 5.87c-.86.07.767-3.004 1.17-4.234 0 0-3.908 3.772-4.648 3.475-.74-.296 1.05-1.968 3.207-4.19 0 0-2.923 1.42-3.892.752-.799-.55 6.37-3.727 6.671-4.648 0 0 .984-11.962 3.925-18.864C14.51 46.09 21.111 34.663 24.251 36.33"/>
        <g transform="translate(2 -.287)">
            <mask id="b" fill="#fff">
                <use xlink:href="#a"/>
            </mask>
            <path fill="#202693" d="M11.593 5.011S10.146 1.619 9.397.836c-.98-1.024-5.059-.78-7.14 2.149C-.066 6.25.8 9.243 1.706 9.787c1.478.887 4.882 1.128 4.882 1.128l5.004-5.904z" mask="url(#b)"/>
        </g>
        <path fill="#161B6C" d="M13.593 4.724L8.59 10.628S5.185 10.387 3.707 9.5c-.906-.544-1.772-3.537.55-6.802 0 0-.48 1.616-.082 2.651.398 1.036 2.943-.355 4.778-.477 1.194-.08 4.64-.148 4.64-.148"/>
        <path fill="#F5C9B3" d="M25.082 26.296s-.579 3.761 1.447 7.233c2.026 3.472 3.905 6.8 4.195 8.39.29 1.591-2.569 21.868-2.569 21.868l-8.408-.415s.4-27.955.561-32.013c.145-3.616 1.65-6.333 1.65-6.333l3.125 1.27z"/>
        <path fill="#F1F2F2" d="M18.515 56.27c0-4.331-.207-16.194-.01-17.817.222-1.833 1.222-4.278 1.222-4.278.59 0 4.87 2.837 6.389 2.5 1.518-.337 1.777-1.555 1.777-1.555 3.333 4.443 5.444 7.22 5.444 7.999 0 2.007-2.094 7.325-3.015 13.766 0 0-5.595-.704-7.47-.814-1.276-.075-4.337.2-4.337.2"/>
        <path fill="#E6A17B" d="M20.79 28.15c.49-1.9 1.167-3.123 1.167-3.123l3.125 1.269s-.226 1.47.099 3.419c0 0-.298.888-1.918.14-1.784-.823-2.473-1.705-2.473-1.705"/>
        <path fill="#F5C9B3" d="M30.216 7.657s5.171 3.44 5.125 7.31c-.02 1.674-.034 4.525-.034 4.525s1.106.951 1.886 1.314c0 0 .251 1.184-1.725 1.748 0 0-.293 4.27-.772 4.99-.48.72-5.772 1.05-8.293.184-1.474-.507-4.539-3.083-4.539-3.083s-6.304.685-5.755-6.517c.6-7.872 8.19-10.91 14.107-10.47"/>
        <path fill="#E6A17B" d="M25.181 13.51c2.448 1.994 2.848 1.44 2.848 1.44s-.376-1.033 0-1.587c.375-.553 5.028-2.141 5.602-2.53-1.512-1.878-3.415-3.176-3.415-3.176-2.574-.191-5.464.278-7.958 1.515.541 1.73 1.833 3.452 2.923 4.339"/>
        <path fill="#F4D600" d="M7.738 11.735s1.253-1.757 4.128-4.718c1.71-1.76 3.01-3.14 3.01-3.14s-.408-.26-1.258-.41c-.66-.116-2.382 1.368-2.686 1.62-2.975 2.458-3.635 5.237-3.656 5.491-.038.452.462 1.157.462 1.157"/>
        <path fill="#FFF" d="M33.118 19.794s.091-3.525-.455-4.844c0 0-1.059.596-1.592 2.259-.51 1.59-.42 2.37-.42 2.37s1.44.36 2.467.215"/>
        <path fill="#000" d="M25.142 29.443c-.71-.045-2.275-.267-4.37-1.214a15.847 15.847 0 0 0-.37 2c.765.34 2.684 1.07 5.181 1.148a12.243 12.243 0 0 1-.44-1.934"/>
        <path fill="#161B24" d="M32.663 14.95c-.62.632-1.003 1.39-1.225 2.18-.108.397-.219.817-.296 1.224-.089.4-.16.837-.194 1.191l-.225-.255c.755.263 1.565.493 2.393.49.008 0 .015.005.015.013.001.007-.005.013-.01.015-.827.193-1.685.155-2.542.061a.245.245 0 0 1-.216-.204l-.009-.05v-.006c-.08-.518-.009-.95.072-1.405.107-.444.228-.868.411-1.292.195-.419.418-.83.736-1.167.305-.34.67-.636 1.09-.795"/>
        <path fill="#161B24" d="M32.663 14.95c.38.92.49 2.624.463 4.542 0 0-.356-.039-.717-.887-.34-.796-.135-3.38-.135-3.38l.39-.275z"/>
        <path fill="#E6A17B" d="M35.359 23.807s-.043.507-.08.81c0 0-3.512-.025-3.886-.466-.28-.33-.75-1.321-.75-1.321s.446.326 1.03.734c.345.24 3.686.243 3.686.243M19.957 19.406c-.053-.01-.053-.083 0-.099.433-.133 1.378-.345 1.933-.23.54.113.752 1.17.738 1.488-.01.293-.826.044-.733.465.064.29.575.516.758.588.029.011.034.05.01.07-.224.171-1.073.755-1.585.08-.3-.394.049-1.098.332-1.769.088-.207-.745-.456-1.453-.593"/>
        <path fill="#202693" d="M33.995 13.505s-.308.831-.506.94c-.112.061-1.62-.207-2.174-.049-.505.144-1.405.371-1.405.371s.533-.587 1.312-1.046c.652-.384 2.773-.216 2.773-.216M25.475 22.004l-1.073-1.073s-.474-2.486-1.151-3.028c-1.271-1.016-3.881-.162-4.596.434-.716.596.302 4.376 1.999 5.2 1.466.713 2.556.017 2.556.017s1.01 5.984-1.522 9.37c-2.531 3.386-4.677 4.088-4.677 4.088S6.996 37.819 2.467 28.6c0 0 5.722-3.377 7.51-4.927 1.788-1.55-3.815-7.75-3.338-9.775.477-2.027 4.41-10.73 12.04-11.326 7.63-.596 8.796 1.878 10.849 2.742 1.79.754 2.985.758 3.429.853a.154.154 0 0 1 .115.205c-.164.476-.661 1.84-1.213 2.613-.904 1.265-5.355 2.276-5.28 3.328.042.595 1.652 2.51 1.519 3.254-.23 1.277-1.31 2.399-2.092 3.926-.89 1.738-.531 2.51-.531 2.51"/>
        <path fill="#161B6C" d="M18.654 18.337c-.715.596.303 4.375 2 5.2 1.465.713 2.555.016 2.555.016s1.011 5.985-1.52 9.37c-2.533 3.386-4.679 4.088-4.679 4.088s-10.014.808-14.544-8.41c0 0 4.711.821 7.141.88 2.814.066 5.784-3.818 6.651-4.28 1.063-.568 1.87-1.056 1.87-1.056s-1.446-2.866-.886-4.267c.231-.579 1.412-1.54 1.412-1.54M23.251 17.903c.677.542 1.15 3.028 1.15 3.028l1.074 1.073s-.359-.774.53-2.512c.783-1.527 1.863-2.649 2.092-3.926.133-.742-1.477-2.659-1.519-3.253-.075-1.053 4.377-2.063 5.281-3.328.551-.772 1.048-2.138 1.212-2.613a.153.153 0 0 0-.114-.205c-.444-.095-1.638-.099-3.429-.853 0 0 .783 1.232.265 1.543-.519.311-5.702.622-6.946 1.036-1.244.415.614 5.53.726 6.635.06.601-.322 3.375-.322 3.375"/>
        <path fill="#BCBEC0" d="M20.893 37.713s.062 7.283 1.527 12.182c1.465 4.899 2.053 6.316 2.053 6.316s3.93.363 5.85.674l-9.43-19.172z"/>
        <path fill="#F5C9B3" d="M50.877 78.82c-.58-1.043-1.917-2.873-1.762-3.016 0 0 .175.061 1.022.182.73.104 2.142-.253.589-1.03-2.428-1.218-3.814-2.283-3.814-2.283-1.26-1.726-12.373-16.496-12.373-16.496-1.471-3.072-4.152-10.25-5.874-13.363-2.808-5.077-5.548-7.02-6.883-6.31-3.14 1.67 2.634 13.534 7.967 21.783 4.073 6.302 14.82 16.687 14.82 16.687s.682 1.734 1.107 3.53c.294 1.24.717 3.587 1.088 3.547.454-.049.429-3.874.429-3.874-.03.332 1.349 4.502 1.69 4.465.456-.05.344-1.399.179-2.14-.225-1.01-.382-2.077-.494-2.68 0 0 2.3 3.11 2.803 3.021.325-.056.064-1.019-.494-2.023M26.689 113.734L25.265 131.3l-4.015.017-1.771-17.723z"/>
        <path fill="#9F7215" d="M27.864 109.72l-9.678-.039 1.292 3.913s3.293.603 7.21.14l1.176-4.015z"/>
        <g transform="translate(20 125.713)">
            <mask id="d" fill="#fff">
                <use xlink:href="#c"/>
            </mask>
            <path fill="#21212E" d="M.588 1.968l5.234.347L5.968.52s1.923.044 2.585.286c0 0-1.693 6.757-1.343 7.144 2.105 2.327 11.978 2.955 11.712 4.451-.124.698-2.679.622-7.774.565-5.13-.059-8.005.057-9.842-.055 0 0-.316-6.136-.718-10.942" mask="url(#d)"/>
        </g>
        <path fill="#9F7215" d="M17.728 110.802s-1.114-8.077-2.256-17.48c-.733-6.039-1.478-12.623-1.948-17.969-.249-2.83.424-4.65 2.319-7.7 0 0 1.514-2.318 3.359-5.664l10.464.343s4.517 21.775 3.43 30.725c-.914 7.521-4.641 18.136-4.641 18.136s-6.05.62-10.727-.39"/>
        <path fill="#F5C9B3" d="M18.862 113.198L6.535 126.272 3.474 123.1l10.05-14.755z"/>
        <path fill="#9F7215" d="M22.325 110.894l-7.26-6.401-1.54 3.852s2.091 2.629 5.337 4.853l3.463-2.304z"/>
        <path fill="#21212E" d="M7.878 138.623S.412 126.567.683 125.777c.293-.857 4.924-6.042 4.924-6.042l3.516 3.702 2.073-1.75s1.614 2.14 1.737 2.477c0 0-4.208 3.178-4.933 3.76-.464.373 1.312 6.625 1.861 8.148 0 0 1.308.406 2.441.901.94.41 1.021 1.59-.012 1.65-1.586.093-4.412 0-4.412 0"/>
        <path fill="#E8C012" d="M36.202 86.22s-2.875-14.83-6.535-23.889l.973-2.53-12.12-.528.682 2.716s-4.372 6.348-5.646 9.226c0 0-1.004 3.782 1.006 7.58 0 0 6.49 12.616 6.242 13.074-3.056 5.633-7.786 13.774-7.786 13.774 4.482 4.167 9.649 6.128 9.649 6.128 5.849-3.427 14.224-13.5 14.518-16.839.173-1.965-.257-5.123-.983-8.712"/>
        <path fill="#BE9200" d="M30.64 59.8l-12.12-.527.681 2.716s-4.372 6.348-5.646 9.226c0 0-1.003 3.782 1.007 7.58 0 0 6.49 12.616 6.241 13.074-3.056 5.633-7.786 13.774-7.786 13.774 4.482 4.167 9.65 6.128 9.65 6.128s2.584-1.563 3.733-2.712c1.15-1.148-3.845-29.1-4.022-35.13-.178-6.033 7.288-11.598 7.288-11.598l.973-2.53z"/>
    </g>
</svg>
